<svg width="400" height="500" viewBox="0 0 400 500" font-size="16px" xmlns="http://www.w3.org/2000/svg" xmlns:xlink="http://www.w3.org/1999/xlink">
        <defs>
            <linearGradient id="grad1" x1="0%" y1="0%" x2="100%" y2="100%">
                <stop offset="0%" style="stop-color:#000;stop-opacity:1"></stop>
                <stop offset="100%" style="stop-color:#000;stop-opacity:1"></stop>
            </linearGradient>
            <clipPath id="corners">
                <rect width="400" height="500" rx="42" ry="42"></rect>
            </clipPath>
            <path id="text-path-a" d="M40 12 H360 A28 28 0 0 1 388 40 V460 A28 28 0 0 1 360 488 H40 A28 28 0 0 1 12 460 V40 A28 28 0 0 1 40 12 z"></path>
            <path id="minimap" d="M234 444C234 457.949 242.21 463 253 463"></path>
        </defs>
        <g clip-path="url(#corners)">
            <rect fill="url(#grad1)" x="0px" y="0px" width="400" height="500"></rect>
        </g>
        <text text-rendering="optimizeSpeed">
            <textPath startOffset="-100%" fill="#fff" font-family="'Courier New', monospace" font-size="10px" xlink:href="#text-path-a">0x69a5cb5ea6928202073e371d90d0f7b723ec29d1 
            <animate additive="sum" attributeName="startOffset" from="0%" to="100%" begin="0s" dur="30s" repeatCount="indefinite"></animate>
            </textPath>
            <textPath startOffset="0%" fill="#fff" font-family="'Courier New', monospace" font-size="10px" xlink:href="#text-path-a">0x69a5cb5ea6928202073e371d90d0f7b723ec29d1
            <animate additive="sum" attributeName="startOffset" from="0%" to="100%" begin="0s" dur="30s" repeatCount="indefinite"></animate>
            </textPath>
            <textPath startOffset="50%" fill="#fff" font-family="'Courier New', monospace" font-size="10px" xlink:href="#text-path-a">0x913efae547bc70e0dfb7aad615592952e92da0fe * $$0.3%
            <animate additive="sum" attributeName="startOffset" from="0%" to="100%" begin="0s" dur="30s" repeatCount="indefinite"></animate>
            </textPath>
            <textPath startOffset="-50%" fill="#fff" font-family="'Courier New', monospace" font-size="10px" xlink:href="#text-path-a">0x913efae547bc70e0dfb7aad615592952e92da0fe * $$0.3%
            <animate additive="sum" attributeName="startOffset" from="0%" to="100%" begin="0s" dur="30s" repeatCount="indefinite"></animate>
            </textPath>
        </text>
        <g mask="url(#fade-symbol)">
            <text y="64" x="200" fill="white" font-family="sans-serif" font-weight="200" font-size="2em" text-anchor="middle">DAY 128, 2022</text>
            <text y="109" x="200" fill="white" font-family="sans-serif" font-weight="200" font-size="1.5em" text-anchor="middle">6,700 <tspan font-size="0.75em">ETH</tspan></text>
            <text y="144" x="200" fill="white" font-family="sans-serif" font-weight="200" font-size="1.75em" text-anchor="middle">🔥BURNT</text>
        </g>
        <rect x="16" y="16" width="368" height="468" rx="26" ry="26" fill="rgba(0,0,0,0)" stroke="rgba(255,255,255,0.2)"></rect>
        
        <g transform="translate(66,232.66666666666669)"><g class="text"><path stroke-linecap="round" stroke-linejoin="round" d="M-39.937,35.433 L-42.073,35.568 L-42.073,28.538 L-40.35,28.429 C-40.072,28.412 -39.682,28.433 -39.458,28.479 C-39.234,28.525 -38.939,28.65 -38.783,28.765 C-38.627,28.88 -38.442,29.114 -38.358,29.3 C-38.275,29.487 -38.21,29.834 -38.21,30.095 C-38.21,30.266 -38.242,30.518 -38.284,30.672 C-38.326,30.825 -38.422,31.039 -38.504,31.161 C-38.586,31.283 -38.745,31.445 -38.866,31.532 C-38.988,31.618 -39.204,31.718 -39.361,31.761 C-39.189,31.774 -38.939,31.843 -38.79,31.918 C-38.641,31.993 -38.439,32.146 -38.329,32.268 C-38.219,32.39 -38.085,32.608 -38.023,32.767 C-37.961,32.926 -37.913,33.19 -37.913,33.369 C-37.913,33.632 -37.978,34 -38.061,34.209 C-38.145,34.418 -38.327,34.695 -38.477,34.843 C-38.628,34.991 -38.908,35.172 -39.118,35.255 C-39.328,35.339 -39.686,35.417 -39.937,35.433 L-39.937,35.433 M-39.892,31.958 L-41.83,32.081 L-41.83,35.292 L-39.937,35.172 C-39.704,35.157 -39.378,35.087 -39.192,35.011 C-39.006,34.936 -38.761,34.778 -38.632,34.65 C-38.503,34.523 -38.349,34.284 -38.279,34.104 C-38.21,33.924 -38.156,33.614 -38.156,33.394 C-38.156,33.223 -38.203,32.971 -38.264,32.819 C-38.324,32.666 -38.466,32.46 -38.587,32.347 C-38.709,32.234 -38.946,32.099 -39.129,32.038 C-39.313,31.978 -39.646,31.943 -39.892,31.958 L-39.892,31.958 M-41.83,28.783 L-41.83,31.82 L-40.26,31.721 C-39.757,31.689 -39.167,31.49 -38.911,31.266 C-38.656,31.043 -38.457,30.528 -38.457,30.091 C-38.457,29.662 -38.666,29.176 -38.934,28.979 C-39.202,28.783 -39.822,28.657 -40.35,28.69 L-41.83,28.783 L-41.83,28.783 M-33.137,35.003 L-33.384,35.019 L-33.384,34.174 C-33.505,34.426 -33.781,34.744 -34.014,34.902 C-34.246,35.059 -34.705,35.199 -35.061,35.221 C-35.264,35.234 -35.55,35.205 -35.716,35.154 C-35.882,35.103 -36.102,34.965 -36.22,34.838 C-36.337,34.711 -36.48,34.449 -36.546,34.238 C-36.611,34.028 -36.663,33.626 -36.663,33.319 L-36.663,30.002 L-36.42,29.987 L-36.42,33.313 C-36.42,33.582 -36.375,33.933 -36.318,34.115 C-36.262,34.298 -36.139,34.524 -36.037,34.633 C-35.936,34.743 -35.749,34.861 -35.61,34.903 C-35.471,34.946 -35.235,34.971 -35.07,34.961 C-34.843,34.947 -34.536,34.879 -34.369,34.806 C-34.202,34.733 -33.984,34.588 -33.87,34.475 C-33.756,34.362 -33.616,34.161 -33.55,34.015 C-33.485,33.87 -33.412,33.631 -33.384,33.469 L-33.384,29.795 L-33.137,29.779 L-33.137,35.003 L-33.137,35.003 M-29.431,29.502 L-29.458,29.735 C-29.498,29.732 -29.564,29.728 -29.608,29.725 C-29.653,29.723 -29.725,29.723 -29.773,29.726 C-29.962,29.738 -30.228,29.81 -30.38,29.89 C-30.532,29.97 -30.736,30.134 -30.847,30.265 C-30.959,30.395 -31.101,30.631 -31.174,30.804 C-31.246,30.977 -31.327,31.267 -31.36,31.468 L-31.36,34.891 L-31.603,34.906 L-31.603,29.682 L-31.36,29.667 L-31.36,30.753 C-31.249,30.439 -30.989,30.045 -30.766,29.851 C-30.544,29.658 -30.109,29.491 -29.773,29.47 C-29.709,29.466 -29.623,29.467 -29.575,29.472 C-29.527,29.477 -29.464,29.49 -29.431,29.502 L-29.431,29.502 M-28.279,30.689 L-28.279,30.689 C-28.219,30.53 -28.098,30.297 -28.003,30.155 C-27.908,30.013 -27.738,29.82 -27.614,29.713 C-27.49,29.606 -27.276,29.471 -27.126,29.404 C-26.975,29.338 -26.724,29.277 -26.552,29.267 C-26.345,29.253 -26.058,29.283 -25.896,29.334 C-25.734,29.385 -25.521,29.521 -25.41,29.646 C-25.299,29.771 -25.167,30.025 -25.109,30.228 C-25.051,30.431 -25.005,30.816 -25.005,31.11 L-25.005,34.489 L-25.248,34.505 L-25.248,31.125 C-25.248,30.845 -25.291,30.488 -25.345,30.308 C-25.399,30.128 -25.518,29.91 -25.617,29.809 C-25.716,29.708 -25.899,29.602 -26.035,29.567 C-26.172,29.532 -26.404,29.513 -26.566,29.523 C-26.715,29.533 -26.928,29.581 -27.052,29.634 C-27.176,29.686 -27.35,29.791 -27.45,29.874 C-27.55,29.956 -27.688,30.1 -27.767,30.203 C-27.845,30.305 -27.95,30.473 -28.007,30.585 C-28.064,30.697 -28.138,30.871 -28.176,30.982 C-28.214,31.093 -28.259,31.254 -28.279,31.35 L-28.279,34.696 L-28.522,34.711 L-28.522,29.488 L-28.279,29.472 L-28.279,30.689 L-28.279,30.689 M-23.184,27.741 L-22.937,27.725 L-22.937,29.135 L-21.83,29.065 L-21.83,29.33 L-22.937,29.4 L-22.937,33.108 C-22.937,33.301 -22.911,33.542 -22.878,33.66 C-22.845,33.777 -22.775,33.917 -22.718,33.98 C-22.662,34.043 -22.559,34.106 -22.485,34.125 C-22.41,34.143 -22.287,34.153 -22.204,34.148 C-22.125,34.143 -22.017,34.131 -21.956,34.12 C-21.895,34.11 -21.793,34.09 -21.722,34.074 L-21.682,34.318 C-21.71,34.331 -21.761,34.346 -21.799,34.354 C-21.837,34.362 -21.898,34.373 -21.938,34.38 C-21.979,34.387 -22.04,34.395 -22.078,34.398 C-22.116,34.402 -22.165,34.406 -22.19,34.408 C-22.322,34.416 -22.505,34.4 -22.608,34.372 C-22.712,34.343 -22.849,34.256 -22.921,34.174 C-22.993,34.092 -23.079,33.916 -23.116,33.771 C-23.154,33.627 -23.184,33.344 -23.184,33.124 L-23.184,29.416 L-24.083,29.473 L-24.083,29.207 L-23.184,29.15 L-23.184,27.741 L-23.184,27.741 M-14.639,30.107 L-14.639,30.377 L-17.994,30.589 L-17.994,34.046 L-18.237,34.062 L-18.237,27.032 L-14.18,26.776 L-14.18,27.036 L-17.994,27.277 L-17.994,30.319 L-14.639,30.107 L-14.639,30.107 M-11.437,33.729 C-11.687,33.744 -12.051,33.683 -12.269,33.588 C-12.486,33.493 -12.783,33.276 -12.946,33.092 C-13.109,32.909 -13.309,32.562 -13.402,32.301 C-13.496,32.039 -13.569,31.586 -13.569,31.266 L-13.569,31.053 C-13.569,30.733 -13.498,30.269 -13.407,29.993 C-13.316,29.717 -13.124,29.344 -12.968,29.14 C-12.813,28.936 -12.529,28.682 -12.321,28.561 C-12.112,28.439 -11.765,28.332 -11.527,28.317 C-11.299,28.303 -10.973,28.353 -10.782,28.432 C-10.591,28.511 -10.336,28.694 -10.198,28.851 C-10.06,29.008 -9.893,29.306 -9.816,29.532 C-9.738,29.758 -9.678,30.151 -9.678,30.431 L-9.678,30.735 L-13.326,30.966 L-13.326,31.038 L-13.326,31.25 C-13.326,31.525 -13.263,31.921 -13.182,32.156 C-13.101,32.391 -12.927,32.706 -12.784,32.875 C-12.641,33.043 -12.378,33.245 -12.183,33.336 C-11.989,33.427 -11.662,33.487 -11.437,33.473 C-11.32,33.465 -11.144,33.439 -11.034,33.413 C-10.924,33.387 -10.76,33.326 -10.659,33.274 C-10.558,33.221 -10.406,33.116 -10.312,33.032 C-10.219,32.949 -10.079,32.787 -9.993,32.662 L-9.822,32.782 C-9.891,32.892 -10.013,33.05 -10.101,33.142 C-10.19,33.235 -10.346,33.361 -10.459,33.43 C-10.571,33.5 -10.765,33.588 -10.902,33.632 C-11.038,33.676 -11.272,33.718 -11.437,33.729 L-11.437,33.729 M-11.527,28.578 C-11.734,28.591 -12.03,28.677 -12.204,28.775 C-12.377,28.873 -12.614,29.075 -12.746,29.237 C-12.877,29.398 -13.043,29.689 -13.126,29.9 C-13.208,30.112 -13.289,30.464 -13.312,30.704 L-9.921,30.49 L-9.921,30.427 C-9.921,30.207 -9.971,29.884 -10.036,29.688 C-10.1,29.493 -10.242,29.229 -10.36,29.086 C-10.477,28.943 -10.699,28.771 -10.866,28.693 C-11.033,28.615 -11.322,28.565 -11.527,28.578 L-11.527,28.578 M-6.796,33.435 C-7.046,33.451 -7.41,33.39 -7.628,33.295 C-7.845,33.2 -8.141,32.983 -8.304,32.799 C-8.468,32.615 -8.667,32.269 -8.761,32.007 C-8.854,31.746 -8.927,31.293 -8.927,30.973 L-8.927,30.76 C-8.927,30.44 -8.856,29.976 -8.765,29.7 C-8.674,29.424 -8.482,29.051 -8.327,28.847 C-8.171,28.643 -7.888,28.389 -7.679,28.267 C-7.471,28.145 -7.123,28.039 -6.885,28.024 C-6.658,28.01 -6.332,28.06 -6.141,28.139 C-5.95,28.218 -5.694,28.401 -5.556,28.558 C-5.419,28.715 -5.251,29.013 -5.174,29.239 C-5.097,29.465 -5.037,29.858 -5.037,30.138 L-5.037,30.442 L-8.684,30.672 L-8.684,30.745 L-8.684,30.957 C-8.684,31.231 -8.621,31.628 -8.541,31.863 C-8.46,32.098 -8.285,32.413 -8.142,32.581 C-8,32.75 -7.737,32.952 -7.542,33.043 C-7.347,33.134 -7.021,33.194 -6.796,33.179 C-6.679,33.172 -6.503,33.146 -6.393,33.12 C-6.283,33.094 -6.119,33.033 -6.017,32.981 C-5.916,32.928 -5.765,32.822 -5.671,32.739 C-5.578,32.656 -5.438,32.494 -5.352,32.369 L-5.181,32.488 C-5.249,32.599 -5.371,32.756 -5.46,32.849 C-5.548,32.941 -5.705,33.067 -5.817,33.137 C-5.93,33.207 -6.124,33.295 -6.26,33.339 C-6.397,33.383 -6.631,33.425 -6.796,33.435 L-6.796,33.435 M-6.885,28.285 C-7.093,28.298 -7.389,28.384 -7.562,28.482 C-7.736,28.58 -7.973,28.782 -8.104,28.943 C-8.236,29.105 -8.402,29.396 -8.484,29.607 C-8.567,29.819 -8.648,30.17 -8.671,30.411 L-5.28,30.197 L-5.28,30.134 C-5.28,29.914 -5.33,29.591 -5.395,29.395 C-5.459,29.2 -5.601,28.936 -5.718,28.793 C-5.836,28.649 -6.057,28.478 -6.224,28.4 C-6.391,28.322 -6.681,28.272 -6.885,28.285 L-6.885,28.285 M-0.904,31.687 C-0.904,31.587 -0.932,31.43 -0.967,31.329 C-1.002,31.228 -1.103,31.079 -1.196,30.989 C-1.29,30.898 -1.489,30.771 -1.651,30.699 C-1.812,30.626 -2.135,30.536 -2.388,30.492 C-2.618,30.455 -2.932,30.384 -3.105,30.33 C-3.279,30.275 -3.504,30.166 -3.62,30.08 C-3.737,29.993 -3.873,29.829 -3.931,29.703 C-3.989,29.578 -4.034,29.341 -4.034,29.162 C-4.034,29.007 -3.985,28.779 -3.922,28.641 C-3.858,28.502 -3.718,28.311 -3.6,28.203 C-3.483,28.095 -3.259,27.957 -3.09,27.888 C-2.92,27.819 -2.621,27.755 -2.406,27.741 C-2.176,27.726 -1.856,27.754 -1.675,27.803 C-1.494,27.853 -1.255,27.971 -1.129,28.073 C-1.002,28.175 -0.852,28.372 -0.785,28.522 C-0.718,28.673 -0.666,28.935 -0.666,29.123 L-0.913,29.138 C-0.913,29.003 -0.956,28.803 -1.012,28.681 C-1.068,28.56 -1.193,28.396 -1.3,28.306 C-1.406,28.216 -1.611,28.11 -1.767,28.063 C-1.924,28.016 -2.204,27.989 -2.406,28.002 C-2.614,28.015 -2.89,28.073 -3.038,28.136 C-3.186,28.198 -3.374,28.318 -3.467,28.409 C-3.561,28.501 -3.668,28.655 -3.713,28.763 C-3.757,28.87 -3.791,29.034 -3.791,29.137 C-3.791,29.251 -3.769,29.413 -3.74,29.508 C-3.71,29.602 -3.618,29.736 -3.528,29.813 C-3.438,29.89 -3.242,29.999 -3.078,30.062 C-2.915,30.125 -2.582,30.212 -2.316,30.26 C-2.071,30.305 -1.743,30.389 -1.567,30.454 C-1.392,30.519 -1.166,30.643 -1.052,30.738 C-0.939,30.833 -0.809,31.007 -0.756,31.137 C-0.702,31.267 -0.661,31.503 -0.661,31.677 C-0.661,31.848 -0.713,32.094 -0.78,32.239 C-0.847,32.385 -0.997,32.583 -1.122,32.693 C-1.247,32.803 -1.483,32.941 -1.662,33.01 C-1.84,33.078 -2.15,33.142 -2.37,33.156 C-2.618,33.171 -2.959,33.143 -3.15,33.092 C-3.341,33.04 -3.591,32.92 -3.722,32.819 C-3.852,32.717 -4.005,32.528 -4.072,32.387 C-4.139,32.246 -4.192,32.009 -4.192,31.847 L-3.949,31.831 C-3.936,32.02 -3.86,32.262 -3.776,32.383 C-3.691,32.504 -3.527,32.65 -3.402,32.716 C-3.277,32.783 -3.061,32.852 -2.908,32.873 C-2.754,32.895 -2.519,32.904 -2.37,32.895 C-2.168,32.882 -1.89,32.822 -1.736,32.758 C-1.582,32.694 -1.381,32.57 -1.277,32.474 C-1.174,32.377 -1.052,32.212 -0.998,32.096 C-0.945,31.98 -0.904,31.801 -0.904,31.687 L-0.904,31.687 Z" stroke="#ffffff" stroke-width="1" fill="none"></path><path stroke-linecap="round" stroke-linejoin="round" d="M-16.744,75.276 L-16.744,77.709 C-16.789,77.78 -16.902,77.904 -17.002,77.993 C-17.102,78.082 -17.303,78.216 -17.461,78.3 C-17.619,78.383 -17.908,78.496 -18.122,78.559 C-18.336,78.621 -18.711,78.683 -18.979,78.7 C-19.295,78.72 -19.744,78.65 -20.004,78.54 C-20.265,78.43 -20.613,78.176 -20.8,77.958 C-20.988,77.74 -21.214,77.328 -21.318,77.015 C-21.421,76.703 -21.502,76.158 -21.502,75.769 L-21.502,74.62 C-21.502,74.245 -21.423,73.709 -21.322,73.395 C-21.221,73.08 -21,72.654 -20.818,72.421 C-20.636,72.188 -20.298,71.9 -20.045,71.762 C-19.792,71.624 -19.359,71.501 -19.055,71.482 C-18.757,71.463 -18.346,71.505 -18.115,71.577 C-17.885,71.649 -17.58,71.815 -17.418,71.955 C-17.256,72.096 -17.058,72.361 -16.964,72.562 C-16.87,72.762 -16.778,73.101 -16.753,73.335 L-16.996,73.351 C-17.023,73.16 -17.105,72.876 -17.182,72.703 C-17.259,72.53 -17.427,72.298 -17.564,72.172 C-17.702,72.047 -17.97,71.897 -18.176,71.83 C-18.382,71.762 -18.767,71.724 -19.055,71.743 C-19.336,71.76 -19.733,71.873 -19.962,72 C-20.191,72.127 -20.495,72.393 -20.656,72.607 C-20.818,72.821 -21.013,73.209 -21.102,73.494 C-21.19,73.779 -21.259,74.261 -21.259,74.595 L-21.259,75.754 C-21.259,76.104 -21.188,76.599 -21.097,76.886 C-21.006,77.172 -20.805,77.55 -20.638,77.75 C-20.471,77.95 -20.158,78.185 -19.921,78.289 C-19.685,78.392 -19.272,78.458 -18.979,78.439 C-18.754,78.425 -18.433,78.374 -18.246,78.323 C-18.059,78.272 -17.802,78.178 -17.659,78.109 C-17.516,78.041 -17.33,77.928 -17.234,77.851 C-17.138,77.774 -17.03,77.666 -16.987,77.603 L-16.987,75.556 L-18.988,75.683 L-18.988,75.417 L-16.744,75.276 L-16.744,75.276 M-11.738,78.146 L-12.017,78.163 C-12.045,78.062 -12.075,77.871 -12.087,77.726 C-12.098,77.581 -12.107,77.357 -12.107,77.213 C-12.175,77.337 -12.307,77.522 -12.408,77.635 C-12.509,77.749 -12.692,77.907 -12.826,77.997 C-12.961,78.087 -13.195,78.202 -13.362,78.26 C-13.529,78.318 -13.818,78.374 -14.023,78.387 C-14.215,78.399 -14.486,78.37 -14.641,78.322 C-14.797,78.273 -15.003,78.159 -15.113,78.06 C-15.223,77.961 -15.355,77.773 -15.415,77.63 C-15.474,77.487 -15.52,77.238 -15.52,77.062 C-15.52,76.866 -15.454,76.581 -15.368,76.41 C-15.281,76.239 -15.088,76.006 -14.925,75.878 C-14.761,75.749 -14.451,75.586 -14.216,75.504 C-13.981,75.423 -13.568,75.345 -13.272,75.327 L-12.107,75.253 L-12.107,74.49 C-12.107,74.121 -12.275,73.686 -12.491,73.496 C-12.708,73.306 -13.189,73.178 -13.591,73.203 C-13.778,73.215 -14.048,73.274 -14.207,73.339 C-14.367,73.403 -14.582,73.534 -14.7,73.638 C-14.817,73.741 -14.961,73.928 -15.028,74.064 C-15.095,74.2 -15.147,74.424 -15.147,74.576 L-15.39,74.582 C-15.39,74.411 -15.332,74.152 -15.257,73.992 C-15.183,73.831 -15.019,73.607 -14.884,73.48 C-14.749,73.354 -14.499,73.192 -14.313,73.111 C-14.127,73.03 -13.811,72.956 -13.591,72.942 C-13.379,72.929 -13.075,72.955 -12.896,73.002 C-12.718,73.049 -12.479,73.169 -12.35,73.277 C-12.221,73.384 -12.064,73.6 -11.992,73.771 C-11.92,73.941 -11.864,74.254 -11.864,74.484 L-11.864,77.101 C-11.864,77.18 -11.86,77.305 -11.855,77.388 C-11.85,77.47 -11.839,77.592 -11.83,77.666 C-11.821,77.74 -11.805,77.848 -11.792,77.913 C-11.779,77.977 -11.756,78.06 -11.738,78.102 L-11.738,78.146 L-11.738,78.146 M-14.023,78.131 C-13.825,78.118 -13.541,78.062 -13.373,78.003 C-13.205,77.943 -12.969,77.819 -12.833,77.718 C-12.698,77.617 -12.513,77.433 -12.41,77.297 C-12.308,77.162 -12.175,76.927 -12.107,76.759 L-12.107,75.518 L-13.258,75.591 C-13.524,75.608 -13.894,75.675 -14.104,75.744 C-14.314,75.813 -14.591,75.952 -14.738,76.061 C-14.885,76.171 -15.06,76.369 -15.138,76.514 C-15.217,76.659 -15.278,76.9 -15.278,77.066 C-15.278,77.199 -15.237,77.391 -15.185,77.504 C-15.134,77.618 -15.02,77.77 -14.927,77.852 C-14.833,77.935 -14.66,78.031 -14.531,78.074 C-14.402,78.116 -14.18,78.141 -14.023,78.131 L-14.023,78.131 M-7.299,76.586 C-7.299,76.485 -7.327,76.329 -7.362,76.228 C-7.398,76.127 -7.498,75.978 -7.592,75.887 C-7.685,75.797 -7.884,75.67 -8.046,75.597 C-8.208,75.525 -8.53,75.434 -8.783,75.391 C-9.014,75.354 -9.327,75.283 -9.501,75.228 C-9.674,75.174 -9.899,75.065 -10.016,74.978 C-10.132,74.892 -10.268,74.727 -10.326,74.602 C-10.384,74.477 -10.429,74.24 -10.429,74.061 C-10.429,73.906 -10.38,73.678 -10.317,73.539 C-10.254,73.401 -10.113,73.209 -9.995,73.101 C-9.878,72.994 -9.654,72.856 -9.485,72.787 C-9.315,72.718 -9.016,72.653 -8.801,72.64 C-8.571,72.625 -8.251,72.653 -8.071,72.702 C-7.89,72.752 -7.651,72.87 -7.524,72.972 C-7.398,73.074 -7.247,73.27 -7.18,73.421 C-7.113,73.571 -7.061,73.834 -7.061,74.022 L-7.308,74.037 C-7.308,73.901 -7.352,73.701 -7.407,73.58 C-7.463,73.459 -7.589,73.294 -7.695,73.205 C-7.801,73.115 -8.006,73.009 -8.163,72.961 C-8.32,72.914 -8.599,72.888 -8.801,72.9 C-9.009,72.914 -9.285,72.972 -9.433,73.035 C-9.581,73.097 -9.769,73.216 -9.863,73.308 C-9.956,73.399 -10.064,73.554 -10.108,73.661 C-10.152,73.769 -10.187,73.932 -10.187,74.036 C-10.187,74.15 -10.164,74.312 -10.135,74.407 C-10.106,74.501 -10.013,74.635 -9.923,74.712 C-9.834,74.789 -9.637,74.898 -9.474,74.961 C-9.311,75.024 -8.977,75.111 -8.711,75.159 C-8.466,75.203 -8.138,75.288 -7.963,75.353 C-7.787,75.418 -7.561,75.542 -7.448,75.637 C-7.334,75.732 -7.204,75.906 -7.151,76.036 C-7.098,76.165 -7.056,76.402 -7.056,76.575 C-7.056,76.746 -7.109,76.993 -7.176,77.138 C-7.243,77.284 -7.392,77.482 -7.517,77.592 C-7.643,77.702 -7.879,77.84 -8.057,77.908 C-8.235,77.977 -8.545,78.041 -8.765,78.054 C-9.013,78.07 -9.355,78.042 -9.546,77.99 C-9.737,77.939 -9.987,77.819 -10.117,77.717 C-10.247,77.616 -10.401,77.427 -10.468,77.286 C-10.535,77.145 -10.587,76.908 -10.587,76.745 L-10.344,76.73 C-10.331,76.919 -10.256,77.161 -10.171,77.281 C-10.086,77.402 -9.923,77.548 -9.798,77.615 C-9.672,77.682 -9.456,77.751 -9.303,77.772 C-9.15,77.794 -8.915,77.803 -8.765,77.794 C-8.563,77.781 -8.286,77.721 -8.131,77.657 C-7.977,77.593 -7.776,77.468 -7.673,77.372 C-7.569,77.276 -7.447,77.111 -7.394,76.995 C-7.341,76.879 -7.299,76.7 -7.299,76.586 L-7.299,76.586 M0.778,70.325 L1.021,70.31 L1.021,75.075 C1.021,75.409 0.947,75.867 0.852,76.122 C0.757,76.376 0.552,76.711 0.382,76.887 C0.213,77.064 -0.098,77.277 -0.328,77.374 C-0.559,77.472 -0.946,77.56 -1.214,77.577 C-1.485,77.594 -1.875,77.555 -2.105,77.486 C-2.335,77.418 -2.645,77.244 -2.813,77.089 C-2.981,76.934 -3.187,76.625 -3.283,76.383 C-3.379,76.14 -3.454,75.692 -3.454,75.358 L-3.454,70.593 L-3.211,70.577 L-3.211,75.343 C-3.211,75.628 -3.144,76.018 -3.058,76.233 C-2.972,76.449 -2.788,76.726 -2.638,76.866 C-2.487,77.006 -2.211,77.165 -2.006,77.229 C-1.801,77.294 -1.455,77.332 -1.214,77.317 C-0.976,77.302 -0.631,77.22 -0.425,77.129 C-0.219,77.039 0.058,76.845 0.207,76.686 C0.356,76.527 0.539,76.227 0.625,76.001 C0.711,75.774 0.778,75.376 0.778,75.091 L0.778,70.325 L0.778,70.325 M5.626,75.769 C5.626,75.669 5.599,75.512 5.563,75.411 C5.528,75.31 5.427,75.161 5.334,75.071 C5.24,74.98 5.042,74.853 4.88,74.781 C4.718,74.708 4.395,74.618 4.142,74.574 C3.912,74.537 3.598,74.466 3.425,74.412 C3.251,74.357 3.026,74.248 2.91,74.162 C2.793,74.075 2.658,73.911 2.599,73.785 C2.541,73.66 2.496,73.423 2.496,73.244 C2.496,73.089 2.545,72.861 2.608,72.723 C2.672,72.584 2.812,72.393 2.93,72.285 C3.048,72.177 3.271,72.039 3.44,71.97 C3.61,71.901 3.909,71.837 4.124,71.823 C4.354,71.809 4.674,71.836 4.855,71.886 C5.036,71.935 5.275,72.053 5.401,72.155 C5.528,72.257 5.678,72.454 5.745,72.604 C5.812,72.755 5.865,73.018 5.865,73.205 L5.617,73.221 C5.617,73.085 5.574,72.885 5.518,72.763 C5.463,72.642 5.337,72.478 5.23,72.388 C5.124,72.298 4.92,72.192 4.763,72.145 C4.606,72.098 4.326,72.071 4.124,72.084 C3.917,72.097 3.64,72.156 3.492,72.218 C3.344,72.28 3.156,72.4 3.063,72.491 C2.969,72.583 2.862,72.737 2.818,72.845 C2.773,72.952 2.739,73.116 2.739,73.219 C2.739,73.333 2.762,73.495 2.791,73.59 C2.82,73.684 2.912,73.818 3.002,73.895 C3.092,73.972 3.289,74.081 3.452,74.144 C3.615,74.207 3.948,74.294 4.214,74.342 C4.459,74.387 4.787,74.472 4.963,74.537 C5.139,74.601 5.364,74.726 5.478,74.82 C5.592,74.915 5.721,75.089 5.775,75.219 C5.828,75.349 5.869,75.585 5.869,75.759 C5.869,75.93 5.817,76.176 5.75,76.321 C5.683,76.467 5.533,76.665 5.408,76.775 C5.283,76.885 5.047,77.023 4.868,77.092 C4.69,77.16 4.38,77.224 4.16,77.238 C3.912,77.253 3.571,77.225 3.38,77.174 C3.189,77.122 2.939,77.003 2.809,76.901 C2.678,76.799 2.525,76.61 2.458,76.469 C2.391,76.328 2.339,76.092 2.339,75.929 L2.581,75.913 C2.594,76.103 2.67,76.344 2.755,76.465 C2.839,76.586 3.003,76.732 3.128,76.799 C3.253,76.865 3.47,76.934 3.623,76.956 C3.776,76.977 4.011,76.987 4.16,76.977 C4.362,76.964 4.64,76.905 4.794,76.84 C4.949,76.776 5.149,76.652 5.253,76.556 C5.357,76.459 5.479,76.294 5.532,76.178 C5.585,76.062 5.626,75.883 5.626,75.769 L5.626,75.769 M8.959,76.935 C8.708,76.95 8.344,76.889 8.127,76.794 C7.909,76.699 7.613,76.482 7.45,76.299 C7.287,76.115 7.087,75.768 6.993,75.507 C6.9,75.245 6.827,74.792 6.827,74.472 L6.827,74.259 C6.827,73.939 6.898,73.475 6.989,73.199 C7.08,72.923 7.272,72.55 7.427,72.346 C7.583,72.142 7.866,71.888 8.075,71.767 C8.284,71.645 8.631,71.538 8.869,71.523 C9.096,71.509 9.422,71.559 9.613,71.638 C9.804,71.717 10.06,71.9 10.198,72.057 C10.336,72.214 10.503,72.512 10.58,72.738 C10.657,72.964 10.717,73.357 10.717,73.637 L10.717,73.941 L7.07,74.172 L7.07,74.244 L7.07,74.457 C7.07,74.731 7.133,75.127 7.214,75.362 C7.295,75.598 7.469,75.912 7.612,76.081 C7.755,76.25 8.017,76.452 8.212,76.542 C8.407,76.633 8.734,76.693 8.959,76.679 C9.075,76.671 9.251,76.645 9.361,76.62 C9.471,76.594 9.636,76.532 9.737,76.48 C9.838,76.427 9.989,76.322 10.083,76.238 C10.177,76.155 10.316,75.993 10.402,75.868 L10.573,75.988 C10.505,76.098 10.383,76.256 10.294,76.348 C10.206,76.441 10.05,76.567 9.937,76.636 C9.824,76.706 9.631,76.794 9.494,76.838 C9.357,76.882 9.123,76.924 8.959,76.935 L8.959,76.935 M8.869,71.784 C8.661,71.797 8.365,71.883 8.192,71.981 C8.019,72.079 7.782,72.281 7.65,72.443 C7.518,72.605 7.352,72.895 7.27,73.107 C7.188,73.318 7.106,73.67 7.083,73.91 L10.474,73.696 L10.474,73.633 C10.474,73.413 10.424,73.09 10.36,72.894 C10.295,72.699 10.154,72.435 10.036,72.292 C9.918,72.149 9.697,71.977 9.53,71.899 C9.363,71.821 9.074,71.771 8.869,71.784 L8.869,71.784 M11.626,74.106 L11.626,74.005 C11.626,73.657 11.68,73.168 11.749,72.886 C11.819,72.605 11.976,72.23 12.109,72.028 C12.242,71.827 12.495,71.581 12.687,71.466 C12.879,71.35 13.218,71.249 13.461,71.233 C13.63,71.222 13.872,71.241 14.014,71.276 C14.155,71.31 14.355,71.391 14.47,71.462 C14.585,71.532 14.745,71.667 14.835,71.772 C14.924,71.876 15.045,72.057 15.111,72.186 L15.111,69.034 L15.354,69.018 L15.354,76.434 L15.111,76.449 L15.111,75.614 C15.048,75.732 14.929,75.902 14.839,76.003 C14.749,76.104 14.588,76.243 14.47,76.321 C14.353,76.399 14.15,76.497 14.007,76.546 C13.864,76.594 13.621,76.64 13.452,76.651 C13.209,76.666 12.871,76.604 12.68,76.509 C12.489,76.414 12.238,76.193 12.107,76.004 C11.975,75.816 11.819,75.458 11.749,75.187 C11.68,74.916 11.626,74.443 11.626,74.106 L11.626,74.106 M11.878,73.989 L11.878,74.09 C11.878,74.383 11.92,74.801 11.974,75.045 C12.029,75.288 12.156,75.613 12.264,75.787 C12.373,75.96 12.587,76.166 12.752,76.256 C12.918,76.346 13.222,76.405 13.447,76.39 C13.634,76.379 13.898,76.325 14.05,76.268 C14.202,76.211 14.41,76.094 14.526,76.001 C14.643,75.908 14.796,75.741 14.877,75.619 C14.958,75.497 15.061,75.294 15.111,75.155 L15.111,72.708 C15.071,72.583 14.986,72.386 14.918,72.259 C14.849,72.131 14.711,71.954 14.601,71.854 C14.491,71.754 14.282,71.631 14.124,71.573 C13.966,71.515 13.674,71.48 13.456,71.494 C13.231,71.508 12.926,71.606 12.759,71.717 C12.592,71.828 12.377,72.059 12.267,72.245 C12.157,72.431 12.029,72.771 11.974,73.022 C11.92,73.272 11.878,73.695 11.878,73.989 L11.878,73.989 Z" stroke="#ffffff" stroke-width="1" fill="none"></path><path stroke-linecap="round" stroke-linejoin="round" d="M-0.625,118.752 L-0.625,121.185 C-0.671,121.256 -0.784,121.38 -0.884,121.469 C-0.984,121.559 -1.184,121.693 -1.342,121.776 C-1.501,121.859 -1.79,121.973 -2.004,122.035 C-2.217,122.097 -2.592,122.159 -2.86,122.176 C-3.177,122.196 -3.625,122.126 -3.886,122.016 C-4.146,121.907 -4.495,121.652 -4.682,121.434 C-4.869,121.217 -5.095,120.804 -5.199,120.492 C-5.303,120.179 -5.383,119.634 -5.383,119.246 L-5.383,118.097 C-5.383,117.722 -5.305,117.186 -5.203,116.871 C-5.102,116.556 -4.882,116.13 -4.7,115.898 C-4.518,115.665 -4.179,115.376 -3.926,115.238 C-3.673,115.1 -3.24,114.977 -2.937,114.958 C-2.638,114.939 -2.227,114.981 -1.997,115.053 C-1.767,115.126 -1.462,115.291 -1.3,115.432 C-1.138,115.572 -0.939,115.837 -0.846,116.038 C-0.752,116.238 -0.659,116.577 -0.634,116.812 L-0.877,116.827 C-0.905,116.636 -0.986,116.353 -1.064,116.18 C-1.141,116.007 -1.308,115.774 -1.446,115.649 C-1.584,115.523 -1.851,115.373 -2.058,115.306 C-2.264,115.239 -2.648,115.201 -2.937,115.219 C-3.218,115.237 -3.614,115.349 -3.843,115.477 C-4.072,115.604 -4.376,115.869 -4.538,116.083 C-4.7,116.297 -4.895,116.685 -4.983,116.97 C-5.072,117.256 -5.14,117.737 -5.14,118.072 L-5.14,119.23 C-5.14,119.581 -5.07,120.076 -4.979,120.362 C-4.888,120.648 -4.687,121.026 -4.52,121.226 C-4.353,121.426 -4.039,121.662 -3.803,121.765 C-3.566,121.868 -3.154,121.934 -2.86,121.915 C-2.635,121.901 -2.314,121.85 -2.127,121.799 C-1.94,121.748 -1.683,121.655 -1.54,121.586 C-1.397,121.517 -1.211,121.404 -1.115,121.327 C-1.019,121.25 -0.911,121.142 -0.868,121.08 L-0.868,119.033 L-2.869,119.159 L-2.869,118.894 L-0.625,118.752 L-0.625,118.752 M4.38,121.622 L4.102,121.64 C4.074,121.538 4.043,121.347 4.032,121.202 C4.021,121.058 4.012,120.833 4.012,120.689 C3.943,120.813 3.812,120.998 3.71,121.112 C3.609,121.225 3.426,121.384 3.292,121.474 C3.158,121.563 2.924,121.679 2.757,121.737 C2.59,121.795 2.301,121.85 2.096,121.863 C1.904,121.875 1.633,121.847 1.477,121.798 C1.322,121.75 1.115,121.635 1.005,121.536 C0.895,121.437 0.763,121.249 0.704,121.106 C0.644,120.963 0.598,120.715 0.598,120.538 C0.598,120.343 0.665,120.057 0.751,119.886 C0.837,119.715 1.031,119.482 1.194,119.354 C1.357,119.225 1.667,119.062 1.902,118.981 C2.138,118.899 2.551,118.822 2.847,118.803 L4.012,118.729 L4.012,117.966 C4.012,117.597 3.843,117.162 3.627,116.972 C3.411,116.782 2.93,116.654 2.528,116.679 C2.34,116.691 2.071,116.75 1.911,116.815 C1.752,116.879 1.537,117.01 1.419,117.114 C1.301,117.218 1.158,117.404 1.091,117.54 C1.024,117.676 0.971,117.9 0.971,118.052 L0.729,118.058 C0.729,117.887 0.787,117.629 0.861,117.468 C0.936,117.307 1.099,117.083 1.235,116.957 C1.37,116.83 1.62,116.668 1.806,116.587 C1.992,116.506 2.307,116.433 2.528,116.419 C2.74,116.405 3.044,116.431 3.222,116.479 C3.401,116.526 3.64,116.646 3.769,116.753 C3.898,116.86 4.054,117.076 4.126,117.247 C4.198,117.418 4.255,117.73 4.255,117.961 L4.255,120.577 C4.255,120.656 4.258,120.782 4.264,120.864 C4.269,120.947 4.279,121.069 4.288,121.143 C4.297,121.217 4.314,121.324 4.326,121.389 C4.339,121.453 4.363,121.536 4.38,121.579 L4.38,121.622 L4.38,121.622 M2.096,121.607 C2.293,121.595 2.577,121.539 2.746,121.479 C2.914,121.42 3.15,121.295 3.285,121.194 C3.421,121.093 3.606,120.909 3.708,120.774 C3.811,120.638 3.943,120.403 4.012,120.236 L4.012,118.995 L2.86,119.068 C2.595,119.084 2.225,119.151 2.015,119.22 C1.805,119.289 1.527,119.428 1.381,119.538 C1.234,119.647 1.059,119.845 0.98,119.99 C0.902,120.135 0.841,120.376 0.841,120.542 C0.841,120.675 0.881,120.867 0.933,120.98 C0.985,121.094 1.098,121.246 1.192,121.329 C1.285,121.411 1.459,121.508 1.588,121.55 C1.717,121.592 1.939,121.617 2.096,121.607 L2.096,121.607 M8.819,120.062 C8.819,119.962 8.792,119.805 8.756,119.704 C8.721,119.603 8.621,119.454 8.527,119.364 C8.433,119.273 8.235,119.146 8.073,119.074 C7.911,119.001 7.588,118.911 7.335,118.867 C7.105,118.83 6.791,118.759 6.618,118.705 C6.445,118.65 6.219,118.541 6.103,118.455 C5.987,118.368 5.851,118.204 5.793,118.078 C5.734,117.953 5.689,117.716 5.689,117.537 C5.689,117.382 5.738,117.154 5.802,117.016 C5.865,116.877 6.006,116.686 6.123,116.578 C6.241,116.47 6.464,116.332 6.634,116.263 C6.803,116.194 7.102,116.13 7.317,116.116 C7.547,116.102 7.867,116.129 8.048,116.179 C8.229,116.228 8.468,116.346 8.594,116.448 C8.721,116.55 8.871,116.747 8.939,116.897 C9.006,117.048 9.058,117.311 9.058,117.498 L8.81,117.514 C8.81,117.378 8.767,117.178 8.711,117.056 C8.656,116.935 8.53,116.771 8.424,116.681 C8.317,116.591 8.113,116.485 7.956,116.438 C7.799,116.391 7.52,116.364 7.317,116.377 C7.11,116.39 6.833,116.449 6.685,116.511 C6.537,116.573 6.349,116.693 6.256,116.784 C6.162,116.876 6.055,117.03 6.011,117.138 C5.966,117.245 5.932,117.409 5.932,117.512 C5.932,117.626 5.955,117.788 5.984,117.883 C6.013,117.977 6.105,118.111 6.195,118.188 C6.285,118.265 6.482,118.374 6.645,118.437 C6.808,118.5 7.142,118.587 7.407,118.635 C7.653,118.68 7.98,118.765 8.156,118.829 C8.332,118.894 8.557,119.019 8.671,119.113 C8.785,119.208 8.915,119.382 8.968,119.512 C9.021,119.642 9.062,119.878 9.062,120.052 C9.062,120.223 9.01,120.469 8.943,120.614 C8.876,120.76 8.726,120.958 8.601,121.068 C8.476,121.178 8.24,121.316 8.062,121.385 C7.883,121.453 7.573,121.517 7.353,121.531 C7.105,121.546 6.764,121.518 6.573,121.467 C6.382,121.415 6.132,121.295 6.002,121.194 C5.871,121.092 5.718,120.903 5.651,120.762 C5.584,120.621 5.532,120.385 5.532,120.222 L5.775,120.206 C5.787,120.396 5.863,120.637 5.948,120.758 C6.033,120.879 6.196,121.025 6.321,121.091 C6.446,121.158 6.663,121.227 6.816,121.248 C6.969,121.27 7.204,121.279 7.353,121.27 C7.556,121.257 7.833,121.198 7.987,121.133 C8.142,121.069 8.342,120.945 8.446,120.849 C8.55,120.752 8.672,120.587 8.725,120.471 C8.778,120.355 8.819,120.176 8.819,120.062 L8.819,120.062 M16.897,113.802 L17.139,113.786 L17.139,118.552 C17.139,118.886 17.066,119.343 16.971,119.598 C16.876,119.852 16.67,120.187 16.501,120.364 C16.331,120.54 16.02,120.753 15.79,120.85 C15.56,120.948 15.172,121.037 14.904,121.054 C14.634,121.071 14.244,121.031 14.014,120.963 C13.784,120.894 13.474,120.721 13.305,120.566 C13.137,120.411 12.932,120.102 12.835,119.859 C12.739,119.617 12.665,119.168 12.665,118.834 L12.665,114.069 L12.907,114.054 L12.907,118.819 C12.907,119.104 12.974,119.494 13.06,119.71 C13.146,119.926 13.33,120.202 13.481,120.342 C13.631,120.482 13.908,120.641 14.113,120.705 C14.318,120.77 14.664,120.808 14.904,120.793 C15.142,120.778 15.487,120.696 15.694,120.606 C15.9,120.515 16.176,120.321 16.325,120.162 C16.475,120.004 16.658,119.704 16.744,119.477 C16.83,119.25 16.897,118.852 16.897,118.567 L16.897,113.802 L16.897,113.802 M21.745,119.246 C21.745,119.145 21.717,118.988 21.682,118.887 C21.646,118.786 21.546,118.638 21.452,118.547 C21.359,118.457 21.16,118.33 20.998,118.257 C20.836,118.184 20.514,118.094 20.261,118.05 C20.03,118.013 19.717,117.942 19.543,117.888 C19.37,117.834 19.145,117.724 19.028,117.638 C18.912,117.552 18.776,117.387 18.718,117.262 C18.66,117.136 18.615,116.9 18.615,116.72 C18.615,116.566 18.664,116.337 18.727,116.199 C18.79,116.061 18.931,115.869 19.049,115.761 C19.166,115.653 19.39,115.515 19.559,115.446 C19.729,115.377 20.028,115.313 20.243,115.299 C20.473,115.285 20.793,115.312 20.973,115.362 C21.154,115.412 21.393,115.53 21.52,115.631 C21.646,115.733 21.797,115.93 21.864,116.08 C21.931,116.231 21.983,116.494 21.983,116.681 L21.736,116.697 C21.736,116.561 21.692,116.361 21.637,116.24 C21.581,116.118 21.455,115.954 21.349,115.864 C21.243,115.775 21.038,115.668 20.881,115.621 C20.724,115.574 20.445,115.547 20.243,115.56 C20.035,115.573 19.759,115.632 19.611,115.694 C19.463,115.756 19.275,115.876 19.181,115.968 C19.088,116.059 18.98,116.214 18.936,116.321 C18.892,116.428 18.857,116.592 18.857,116.695 C18.857,116.809 18.88,116.972 18.909,117.066 C18.938,117.161 19.031,117.294 19.121,117.371 C19.21,117.449 19.407,117.558 19.57,117.621 C19.733,117.684 20.067,117.77 20.333,117.819 C20.578,117.863 20.906,117.948 21.081,118.013 C21.257,118.078 21.483,118.202 21.596,118.297 C21.71,118.391 21.84,118.566 21.893,118.695 C21.946,118.825 21.988,119.061 21.988,119.235 C21.988,119.406 21.935,119.652 21.868,119.798 C21.801,119.943 21.652,120.142 21.527,120.251 C21.401,120.361 21.165,120.5 20.987,120.568 C20.809,120.636 20.499,120.7 20.279,120.714 C20.031,120.73 19.689,120.702 19.498,120.65 C19.307,120.598 19.057,120.479 18.927,120.377 C18.797,120.275 18.643,120.086 18.576,119.945 C18.509,119.804 18.457,119.568 18.457,119.405 L18.7,119.39 C18.713,119.579 18.788,119.82 18.873,119.941 C18.958,120.062 19.121,120.208 19.246,120.275 C19.372,120.342 19.588,120.41 19.741,120.432 C19.894,120.453 20.129,120.463 20.279,120.453 C20.481,120.441 20.758,120.381 20.913,120.317 C21.067,120.253 21.268,120.128 21.371,120.032 C21.475,119.936 21.597,119.771 21.65,119.655 C21.703,119.539 21.745,119.36 21.745,119.246 L21.745,119.246 M25.077,120.411 C24.827,120.427 24.463,120.365 24.245,120.27 C24.028,120.176 23.732,119.959 23.568,119.775 C23.405,119.591 23.206,119.245 23.112,118.983 C23.018,118.721 22.946,118.269 22.946,117.948 L22.946,117.736 C22.946,117.415 23.016,116.951 23.107,116.675 C23.199,116.399 23.39,116.026 23.546,115.822 C23.702,115.618 23.985,115.365 24.194,115.243 C24.402,115.121 24.75,115.015 24.987,115 C25.215,114.985 25.541,115.035 25.732,115.114 C25.923,115.193 26.178,115.377 26.316,115.534 C26.454,115.691 26.621,115.988 26.699,116.214 C26.776,116.44 26.836,116.834 26.836,117.113 L26.836,117.418 L23.188,117.648 L23.188,117.72 L23.188,117.933 C23.188,118.207 23.251,118.603 23.332,118.839 C23.413,119.074 23.587,119.388 23.73,119.557 C23.873,119.726 24.136,119.928 24.331,120.019 C24.526,120.11 24.852,120.169 25.077,120.155 C25.194,120.148 25.37,120.122 25.48,120.096 C25.59,120.07 25.754,120.009 25.855,119.956 C25.957,119.904 26.108,119.798 26.202,119.715 C26.295,119.631 26.435,119.469 26.521,119.344 L26.692,119.464 C26.624,119.574 26.502,119.732 26.413,119.824 C26.325,119.917 26.168,120.043 26.056,120.113 C25.943,120.182 25.749,120.27 25.613,120.314 C25.476,120.358 25.242,120.401 25.077,120.411 L25.077,120.411 M24.987,115.26 C24.78,115.273 24.484,115.36 24.311,115.458 C24.137,115.555 23.9,115.757 23.769,115.919 C23.637,116.081 23.471,116.371 23.389,116.583 C23.306,116.794 23.225,117.146 23.202,117.386 L26.593,117.172 L26.593,117.109 C26.593,116.889 26.543,116.566 26.478,116.371 C26.414,116.175 26.272,115.912 26.154,115.768 C26.037,115.625 25.815,115.453 25.648,115.375 C25.482,115.298 25.192,115.247 24.987,115.26 L24.987,115.26 M27.744,117.582 L27.744,117.481 C27.744,117.133 27.798,116.644 27.868,116.363 C27.938,116.081 28.095,115.706 28.228,115.505 C28.361,115.303 28.613,115.057 28.806,114.942 C28.998,114.826 29.336,114.725 29.579,114.71 C29.749,114.699 29.991,114.717 30.132,114.752 C30.274,114.786 30.474,114.868 30.589,114.938 C30.704,115.008 30.863,115.144 30.953,115.248 C31.043,115.352 31.164,115.534 31.23,115.663 L31.23,112.51 L31.473,112.495 L31.473,119.91 L31.23,119.926 L31.23,119.09 C31.166,119.208 31.047,119.379 30.958,119.479 C30.868,119.58 30.706,119.719 30.589,119.797 C30.471,119.875 30.269,119.974 30.126,120.022 C29.983,120.07 29.74,120.116 29.57,120.127 C29.327,120.142 28.99,120.08 28.799,119.985 C28.608,119.89 28.357,119.669 28.225,119.481 C28.094,119.292 27.938,118.934 27.868,118.663 C27.798,118.392 27.744,117.919 27.744,117.582 L27.744,117.582 M27.996,117.465 L27.996,117.566 C27.996,117.86 28.038,118.277 28.093,118.521 C28.147,118.765 28.274,119.089 28.383,119.263 C28.492,119.437 28.705,119.642 28.871,119.732 C29.037,119.822 29.341,119.881 29.566,119.867 C29.753,119.855 30.017,119.801 30.168,119.744 C30.32,119.687 30.529,119.57 30.645,119.477 C30.761,119.384 30.915,119.217 30.996,119.096 C31.077,118.974 31.179,118.771 31.23,118.632 L31.23,116.184 C31.189,116.059 31.105,115.863 31.036,115.735 C30.968,115.608 30.829,115.431 30.719,115.33 C30.609,115.23 30.401,115.107 30.243,115.049 C30.084,114.991 29.792,114.957 29.575,114.971 C29.35,114.985 29.045,115.082 28.878,115.193 C28.711,115.304 28.495,115.535 28.385,115.722 C28.275,115.908 28.147,116.247 28.093,116.498 C28.038,116.749 27.996,117.172 27.996,117.465 L27.996,117.465 Z" stroke="#ffffff" stroke-width="1" fill="none"></path></g><g class="plot"><path stroke-linecap="round" stroke-linejoin="round" d="M-32.178,19.793 L-31.283,11.518 C-30.387,3.242 -28.596,-13.31 -26.805,-20.752 C-25.014,-28.193 -23.223,-26.525 -21.432,-26.962 C-19.641,-27.399 -17.85,-29.942 -16.059,-27.263 C-14.268,-24.584 -12.477,-16.683 -10.686,-9.892 C-8.895,-3.1 -7.104,2.582 -5.313,-0.229 C-3.522,-3.04 -1.731,-14.343 0.06,-15.965 C1.851,-17.588 3.642,-9.528 5.433,-2.867 C7.224,3.793 9.015,9.055 10.806,7.583 C12.597,6.112 14.388,-2.093 16.179,-10.994 C17.97,-19.895 19.761,-29.492 21.552,-31.265 C23.343,-33.038 25.133,-26.986 26.924,-17.933 C28.715,-8.88 30.506,3.175 32.297,0.081 C34.088,-3.013 35.879,-21.257 37.67,-29.497 C39.461,-37.736 41.252,-35.973 43.043,-28.362 C44.834,-20.752 46.625,-7.294 48.416,1.246 C50.207,9.786 51.998,13.409 53.789,5.569 C55.58,-2.271 57.371,-21.573 59.162,-29.46 C60.953,-37.347 62.744,-33.817 64.535,-30.841 C66.326,-27.865 68.117,-25.442 69.908,-22.749 C71.699,-20.056 73.49,-17.093 75.281,-17.684 C77.072,-18.274 78.863,-22.417 80.654,-18.689 C82.445,-14.961 84.236,-3.361 86.027,1.137 C87.818,5.635 89.609,3.031 91.4,-5.694 C93.191,-14.419 94.982,-29.265 96.773,-38.044 C98.564,-46.822 100.355,-49.534 102.146,-46.59 C103.937,-43.647 105.728,-35.048 107.519,-30.342 C109.31,-25.637 111.101,-24.825 112.892,-23.014 C114.683,-21.204 116.474,-18.396 118.265,-14.609 C120.056,-10.823 121.847,-6.059 123.638,-12.633 C125.429,-19.206 127.22,-37.116 129.011,-42.58 C130.802,-48.044 132.593,-41.061 134.384,-35.47 C136.175,-29.878 137.966,-25.677 139.757,-24.443 C141.548,-23.208 143.338,-24.941 145.129,-21.65 C146.92,-18.359 148.711,-10.046 150.502,-14.248 C152.293,-18.45 154.084,-35.168 155.875,-33.503 C157.666,-31.837 159.457,-11.789 161.248,-6.93 C163.039,-2.07 164.83,-12.399 166.621,-18.046 C168.412,-23.693 170.203,-24.657 171.994,-21.274 C173.785,-17.891 175.576,-10.16 177.367,-12.279 C179.158,-14.398 180.949,-26.366 182.74,-35.396 C184.531,-44.425 186.322,-50.516 188.113,-46.956 C189.904,-43.396 191.695,-30.184 193.486,-29.625 C195.277,-29.065 197.068,-41.157 198.859,-43.088 C200.65,-45.02 202.441,-36.792 204.232,-28.747 C206.023,-20.702 207.814,-12.84 209.605,-8.343 C211.396,-3.847 213.187,-2.716 214.978,-10.511 C216.769,-18.307 218.56,-35.028 220.351,-39.813 C222.142,-44.598 223.933,-37.445 225.724,-38.587 C227.515,-39.729 229.306,-49.166 230.201,-53.884 L231.097,-58.602 " stroke="rgb(255, 89, 101)" stroke-width="5" fill="none" stroke-dasharray="0 838.1389770507812"><animate attributeName="stroke-dasharray" dur="2s" to="838.1389770507812 0" fill="freeze"></animate><animateTransform id="ai00f1" attributeName="transform" attributeType="XML" type="translate" from="-5 0" to="5 0" dur="3s" begin="0s;ai00f2.end"></animateTransform><animateTransform id="ai00f2" attributeName="transform" attributeType="XML" type="translate" from="5 0" to="-5 0" dur="3s" begin="ai00f1.end"></animateTransform></path><path stroke-linecap="round" stroke-linejoin="round" d="M-30.715,19.674 L-29.82,11.398 C-28.924,3.122 -27.133,-13.43 -25.342,-20.871 C-23.551,-28.313 -21.76,-26.644 -19.969,-27.081 C-18.178,-27.518 -16.388,-30.061 -14.597,-27.382 C-12.806,-24.703 -11.015,-16.803 -9.224,-10.011 C-7.433,-3.22 -5.642,2.463 -3.851,-0.348 C-2.06,-3.159 -0.269,-14.463 1.522,-16.085 C3.313,-17.707 5.104,-9.647 6.895,-2.987 C8.686,3.674 10.477,8.935 12.268,7.464 C14.059,5.992 15.85,-2.212 17.641,-11.113 C19.432,-20.014 21.223,-29.611 23.014,-31.384 C24.805,-33.157 26.596,-27.106 28.387,-18.053 C30.178,-8.999 31.969,3.056 33.76,-0.038 C35.551,-3.133 37.342,-21.376 39.133,-29.616 C40.924,-37.856 42.715,-36.092 44.506,-28.482 C46.297,-20.871 48.088,-7.414 49.879,1.126 C51.67,9.667 53.461,13.29 55.252,5.45 C57.043,-2.39 58.834,-21.693 60.625,-29.579 C62.416,-37.466 64.207,-33.937 65.998,-30.96 C67.789,-27.984 69.58,-25.561 71.371,-22.868 C73.162,-20.176 74.953,-17.213 76.744,-17.803 C78.535,-18.393 80.326,-22.537 82.117,-18.809 C83.908,-15.08 85.699,-3.481 87.49,1.017 C89.281,5.515 91.072,2.912 92.863,-5.813 C94.654,-14.538 96.445,-29.384 98.236,-38.163 C100.027,-46.942 101.817,-49.653 103.608,-46.71 C105.399,-43.766 107.19,-35.167 108.981,-30.462 C110.772,-25.756 112.563,-24.944 114.354,-23.134 C116.145,-21.323 117.936,-18.515 119.727,-14.729 C121.518,-10.943 123.309,-6.179 125.1,-12.752 C126.891,-19.325 128.682,-37.236 130.473,-42.7 C132.264,-48.164 134.055,-41.181 135.846,-35.589 C137.637,-29.997 139.428,-25.796 141.219,-24.562 C143.01,-23.328 144.801,-25.06 146.592,-21.77 C148.383,-18.479 150.174,-10.165 151.965,-14.367 C153.756,-18.569 155.547,-35.287 157.338,-33.622 C159.129,-31.957 160.92,-11.908 162.711,-7.049 C164.502,-2.189 166.293,-12.519 168.084,-18.166 C169.875,-23.813 171.666,-24.777 173.457,-21.394 C175.248,-18.01 177.039,-10.28 178.83,-12.398 C180.621,-14.517 182.412,-26.485 184.203,-35.515 C185.994,-44.545 187.785,-50.636 189.576,-47.075 C191.367,-43.515 193.158,-30.304 194.949,-29.744 C196.74,-29.184 198.531,-41.276 200.322,-43.208 C202.113,-45.139 203.904,-36.911 205.695,-28.866 C207.486,-20.821 209.277,-12.959 211.068,-8.463 C212.859,-3.966 214.65,-2.835 216.441,-10.631 C218.232,-18.426 220.022,-35.148 221.813,-39.933 C223.604,-44.717 225.395,-37.565 227.186,-38.707 C228.977,-39.849 230.768,-49.285 231.664,-54.004 L232.559,-58.722 L232.559,2.438 L231.664,2.511 C230.768,2.584 228.977,2.73 227.186,2.876 C225.395,3.022 223.604,3.169 221.813,3.315 C220.022,3.461 218.232,3.607 216.441,3.754 C214.65,3.9 212.859,4.046 211.068,4.192 C209.277,4.338 207.486,4.485 205.695,4.631 C203.904,4.777 202.113,4.923 200.322,5.069 C198.531,5.216 196.74,5.362 194.949,5.508 C193.158,5.654 191.367,5.8 189.576,5.947 C187.785,6.093 185.994,6.239 184.203,6.385 C182.412,6.532 180.621,6.678 178.83,6.824 C177.039,6.97 175.248,7.116 173.457,7.263 C171.666,7.409 169.875,7.555 168.084,7.701 C166.293,7.847 164.502,7.994 162.711,8.14 C160.92,8.286 159.129,8.432 157.338,8.579 C155.547,8.725 153.756,8.871 151.965,9.017 C150.174,9.163 148.383,9.31 146.592,9.456 C144.801,9.602 143.01,9.748 141.219,9.894 C139.428,10.041 137.637,10.187 135.846,10.333 C134.055,10.479 132.264,10.626 130.473,10.772 C128.682,10.918 126.891,11.064 125.1,11.21 C123.309,11.357 121.518,11.503 119.727,11.649 C117.936,11.795 116.145,11.941 114.354,12.088 C112.563,12.234 110.772,12.38 108.981,12.526 C107.19,12.673 105.399,12.819 103.608,12.965 C101.817,13.111 100.027,13.257 98.236,13.404 C96.445,13.55 94.654,13.696 92.863,13.842 C91.072,13.988 89.281,14.135 87.49,14.281 C85.699,14.427 83.908,14.573 82.117,14.719 C80.326,14.866 78.535,15.012 76.744,15.158 C74.953,15.304 73.162,15.451 71.371,15.597 C69.58,15.743 67.789,15.889 65.998,16.035 C64.207,16.182 62.416,16.328 60.625,16.474 C58.834,16.62 57.043,16.766 55.252,16.913 C53.461,17.059 51.67,17.205 49.879,17.351 C48.088,17.498 46.297,17.644 44.506,17.79 C42.715,17.936 40.924,18.082 39.133,18.229 C37.342,18.375 35.551,18.521 33.76,18.667 C31.969,18.813 30.178,18.96 28.387,19.106 C26.596,19.252 24.805,19.398 23.014,19.545 C21.223,19.691 19.432,19.837 17.641,19.983 C15.85,20.129 14.059,20.276 12.268,20.422 C10.477,20.568 8.686,20.714 6.895,20.86 C5.104,21.007 3.313,21.153 1.522,21.299 C-0.269,21.445 -2.06,21.592 -3.851,21.738 C-5.642,21.884 -7.433,22.03 -9.224,22.176 C-11.015,22.323 -12.806,22.469 -14.597,22.615 C-16.388,22.761 -18.178,22.907 -19.969,23.054 C-21.76,23.2 -23.551,23.346 -25.342,23.492 C-27.133,23.639 -28.924,23.785 -29.82,23.858 L-30.715,23.931 Z" fill="#e23e47" fill-opacity="0"><animate attributeName="fill-opacity" begin="1.8s" dur="0.2s" to="1" fill="freeze"></animate><animateTransform id="ai11f1" attributeName="transform" attributeType="XML" type="translate" from="-5 0" to="5 0" dur="3s" begin="0s;ai11f2.end"></animateTransform><animateTransform id="ai11f2" attributeName="transform" attributeType="XML" type="translate" from="5 0" to="-5 0" dur="3s" begin="ai11f1.end"></animateTransform></path><path stroke-linecap="round" stroke-linejoin="round" d="M-1.463,61.616 L-0.567,51.299 C0.328,40.981 2.119,20.346 3.91,12.483 C5.701,4.62 7.492,9.528 9.283,11.189 C11.074,12.85 12.865,11.264 14.656,14.804 C16.447,18.344 18.238,27.011 20.029,34.176 C21.82,41.342 23.611,47.006 25.402,43.573 C27.193,40.14 28.984,27.61 30.775,25.998 C32.566,24.386 34.357,33.691 36.148,40.835 C37.939,47.979 39.73,52.961 41.521,50.63 C43.312,48.299 45.103,38.654 46.894,28.289 C48.685,17.924 50.476,6.84 52.267,5.609 C54.058,4.378 55.849,13.001 57.64,23.451 C59.431,33.9 61.222,46.176 63.013,42.348 C64.804,38.52 66.595,18.588 68.386,10.399 C70.177,2.209 71.968,5.762 73.759,14.405 C75.55,23.048 77.341,36.78 79.132,45.064 C80.923,53.348 82.714,56.183 84.505,46.545 C86.296,36.906 88.087,14.792 89.878,6.937 C91.669,-0.918 93.46,5.486 95.251,10.097 C97.042,14.709 98.833,17.529 100.623,20.672 C102.414,23.815 104.205,27.28 105.996,26.76 C107.787,26.24 109.578,21.735 111.369,25.253 C113.16,28.771 114.951,40.312 116.742,44.551 C118.533,48.79 120.324,45.727 122.115,35.694 C123.906,25.662 125.697,8.66 127.488,-0.254 C129.279,-9.168 131.07,-9.994 132.861,-5.024 C134.652,-0.054 136.443,10.711 138.234,16.397 C140.025,22.084 141.816,22.691 143.607,24.04 C145.398,25.389 147.189,27.48 148.98,30.642 C150.771,33.803 152.562,38.036 154.353,30.934 C156.144,23.833 157.935,5.396 159.726,0.499 C161.517,-4.398 163.308,4.244 165.099,10.674 C166.89,17.104 168.681,21.322 170.472,22.618 C172.263,23.915 174.054,22.29 175.845,25.075 C177.636,27.859 179.427,35.053 181.218,30.174 C183.009,25.294 184.8,8.341 186.591,9.674 C188.382,11.007 190.173,30.627 191.964,35.233 C193.755,39.84 195.546,29.433 197.337,23.782 C199.128,18.13 200.919,17.233 202.71,20.74 C204.501,24.246 206.292,32.156 208.083,29.43 C209.874,26.703 211.665,13.34 213.456,3.688 C215.247,-5.963 217.038,-11.904 218.828,-7.282 C220.619,-2.66 222.41,12.525 224.201,13.842 C225.992,15.159 227.783,2.608 229.574,0.998 C231.365,-0.612 233.156,8.719 234.947,16.964 C236.738,25.208 238.529,32.366 240.32,36.251 C242.111,40.136 243.902,40.748 245.693,31.478 C247.484,22.207 249.275,3.055 251.066,-1.843 C252.857,-6.741 254.648,2.616 256.439,2.472 C258.23,2.328 260.021,-7.317 260.917,-12.139 L261.812,-16.962 " stroke="rgb(255, 255, 61)" stroke-width="5" fill="none" stroke-dasharray="0 901.28271484375"><animate attributeName="stroke-dasharray" dur="2s" to="901.28271484375 0" fill="freeze"></animate><animateTransform id="ai12f1" attributeName="transform" attributeType="XML" type="translate" from="-8 0" to="8 0" dur="6s" begin="0s;ai12f2.end"></animateTransform><animateTransform id="ai12f2" attributeName="transform" attributeType="XML" type="translate" from="8 0" to="-8 0" dur="6s" begin="ai12f1.end"></animateTransform></path><path stroke-linecap="round" stroke-linejoin="round" d="M0,61.497 L0.895,51.179 C1.791,40.862 3.582,20.227 5.373,12.364 C7.164,4.5 8.955,9.409 10.746,11.07 C12.537,12.731 14.328,11.144 16.119,14.685 C17.91,18.225 19.701,26.891 21.492,34.057 C23.283,41.222 25.074,46.886 26.865,43.454 C28.656,40.021 30.447,27.491 32.238,25.879 C34.029,24.267 35.82,33.572 37.611,40.716 C39.402,47.86 41.193,52.842 42.984,50.511 C44.775,48.179 46.566,38.535 48.357,28.17 C50.148,17.805 51.939,6.72 53.73,5.489 C55.521,4.258 57.312,12.882 59.102,23.331 C60.893,33.781 62.684,46.056 64.475,42.228 C66.266,38.4 68.057,18.469 69.848,10.279 C71.639,2.09 73.43,5.643 75.221,14.286 C77.012,22.928 78.803,36.66 80.594,44.944 C82.385,53.228 84.176,56.064 85.967,46.425 C87.758,36.786 89.549,14.673 91.34,6.818 C93.131,-1.037 94.922,5.366 96.713,9.978 C98.504,14.59 100.295,17.41 102.086,20.553 C103.877,23.695 105.668,27.161 107.459,26.641 C109.25,26.121 111.041,21.616 112.832,25.134 C114.623,28.651 116.414,40.192 118.205,44.431 C119.996,48.67 121.787,45.608 123.578,35.575 C125.369,25.543 127.16,8.54 128.951,-0.374 C130.742,-9.288 132.533,-10.114 134.324,-5.144 C136.115,-0.174 137.906,10.592 139.697,16.278 C141.488,21.964 143.279,22.571 145.07,23.92 C146.861,25.269 148.652,27.36 150.443,30.522 C152.234,33.684 154.025,37.917 155.816,30.815 C157.607,23.713 159.398,5.277 161.189,0.38 C162.98,-4.517 164.771,4.124 166.562,10.554 C168.353,16.984 170.144,21.202 171.935,22.499 C173.726,23.796 175.517,22.171 177.307,24.955 C179.098,27.74 180.889,34.934 182.68,30.055 C184.471,25.175 186.262,8.222 188.053,9.555 C189.844,10.888 191.635,30.508 193.426,35.114 C195.217,39.72 197.008,29.314 198.799,23.662 C200.59,18.011 202.381,17.114 204.172,20.62 C205.963,24.127 207.754,32.037 209.545,29.31 C211.336,26.584 213.127,13.221 214.918,3.569 C216.709,-6.083 218.5,-12.023 220.291,-7.401 C222.082,-2.779 223.873,12.406 225.664,13.723 C227.455,15.039 229.246,2.488 231.037,0.879 C232.828,-0.731 234.619,8.6 236.41,16.844 C238.201,25.089 239.992,32.247 241.783,36.132 C243.574,40.017 245.365,40.629 247.156,31.358 C248.947,22.088 250.738,2.935 252.529,-1.963 C254.32,-6.86 256.111,2.497 257.902,2.353 C259.693,2.209 261.484,-7.436 262.379,-12.259 L263.275,-17.081 L263.275,44.425 L262.379,44.498 C261.484,44.571 259.693,44.717 257.902,44.863 C256.111,45.01 254.32,45.156 252.529,45.302 C250.738,45.448 248.947,45.594 247.156,45.741 C245.365,45.887 243.574,46.033 241.783,46.179 C239.992,46.326 238.201,46.472 236.41,46.618 C234.619,46.764 232.828,46.91 231.037,47.057 C229.246,47.203 227.455,47.349 225.664,47.495 C223.873,47.641 222.082,47.788 220.291,47.934 C218.5,48.08 216.709,48.226 214.918,48.372 C213.127,48.519 211.336,48.665 209.545,48.811 C207.754,48.957 205.963,49.104 204.172,49.25 C202.381,49.396 200.59,49.542 198.799,49.688 C197.008,49.835 195.217,49.981 193.426,50.127 C191.635,50.273 189.844,50.419 188.053,50.566 C186.262,50.712 184.471,50.858 182.68,51.004 C180.889,51.151 179.098,51.297 177.307,51.443 C175.517,51.589 173.726,51.735 171.935,51.882 C170.144,52.028 168.353,52.174 166.562,52.32 C164.771,52.466 162.98,52.613 161.189,52.759 C159.398,52.905 157.607,53.051 155.816,53.198 C154.025,53.344 152.234,53.49 150.443,53.636 C148.652,53.782 146.861,53.929 145.07,54.075 C143.279,54.221 141.488,54.367 139.697,54.513 C137.906,54.66 136.115,54.806 134.324,54.952 C132.533,55.098 130.742,55.245 128.951,55.391 C127.16,55.537 125.369,55.683 123.578,55.829 C121.787,55.976 119.996,56.122 118.205,56.268 C116.414,56.414 114.623,56.56 112.832,56.707 C111.041,56.853 109.25,56.999 107.459,57.145 C105.668,57.291 103.877,57.438 102.086,57.584 C100.295,57.73 98.504,57.876 96.713,58.023 C94.922,58.169 93.131,58.315 91.34,58.461 C89.549,58.607 87.758,58.754 85.967,58.9 C84.176,59.046 82.385,59.192 80.594,59.338 C78.803,59.485 77.012,59.631 75.221,59.777 C73.43,59.923 71.639,60.07 69.848,60.216 C68.057,60.362 66.266,60.508 64.475,60.654 C62.684,60.801 60.893,60.947 59.102,61.093 C57.312,61.239 55.521,61.385 53.73,61.532 C51.939,61.678 50.148,61.824 48.357,61.97 C46.566,62.117 44.775,62.263 42.984,62.409 C41.193,62.555 39.402,62.701 37.611,62.848 C35.82,62.994 34.029,63.14 32.238,63.286 C30.447,63.432 28.656,63.579 26.865,63.725 C25.074,63.871 23.283,64.017 21.492,64.164 C19.701,64.31 17.91,64.456 16.119,64.602 C14.328,64.748 12.537,64.895 10.746,65.041 C8.955,65.187 7.164,65.333 5.373,65.479 C3.582,65.626 1.791,65.772 0.895,65.845 L0,65.918 Z" fill="#fbbd2b" fill-opacity="0"><animate attributeName="fill-opacity" begin="1.8s" dur="0.2s" to="1" fill="freeze"></animate><animateTransform id="ai23f1" attributeName="transform" attributeType="XML" type="translate" from="-8 0" to="8 0" dur="6s" begin="0s;ai23f2.end"></animateTransform><animateTransform id="ai23f2" attributeName="transform" attributeType="XML" type="translate" from="8 0" to="-8 0" dur="6s" begin="ai23f1.end"></animateTransform></path><path stroke-linecap="round" stroke-linejoin="round" d="M29.253,103.603 L30.148,93.286 C31.044,82.968 32.835,62.333 34.626,54.47 C36.417,46.607 38.208,51.515 39.999,53.176 C41.79,54.837 43.581,53.251 45.372,56.791 C47.163,60.331 48.954,68.998 50.745,76.163 C52.536,83.329 54.327,88.993 56.118,85.56 C57.909,82.127 59.699,69.598 61.49,67.985 C63.281,66.373 65.072,75.678 66.863,82.822 C68.654,89.966 70.445,94.948 72.236,92.617 C74.027,90.286 75.818,80.641 77.609,70.276 C79.4,59.912 81.191,48.827 82.982,47.596 C84.773,46.365 86.564,54.988 88.355,65.438 C90.146,75.887 91.937,88.163 93.728,84.335 C95.519,80.507 97.31,60.575 99.101,52.386 C100.892,44.196 102.683,47.749 104.474,56.392 C106.265,65.035 108.056,78.767 109.847,87.051 C111.638,95.335 113.429,98.171 115.22,88.532 C117.011,78.893 118.802,56.779 120.593,48.924 C122.384,41.069 124.175,47.473 125.966,52.084 C127.757,56.696 129.548,59.516 131.339,62.659 C133.13,65.802 134.921,69.267 136.712,68.747 C138.503,68.228 140.294,63.722 142.085,67.24 C143.876,70.758 145.667,82.299 147.458,86.538 C149.249,90.777 151.04,87.714 152.831,77.682 C154.622,67.649 156.413,50.647 158.204,41.733 C159.995,32.819 161.786,31.993 163.577,36.963 C165.368,41.933 167.159,52.698 168.95,58.385 C170.741,64.071 172.532,64.678 174.323,66.027 C176.114,67.376 177.904,69.467 179.695,72.629 C181.486,75.791 183.277,80.023 185.068,72.921 C186.859,65.82 188.65,47.384 190.441,42.486 C192.232,37.589 194.023,46.231 195.814,52.661 C197.605,59.091 199.396,63.309 201.187,64.606 C202.978,65.902 204.769,64.277 206.56,67.062 C208.351,69.846 210.142,77.041 211.933,72.161 C213.724,67.282 215.515,50.328 217.306,51.661 C219.097,52.995 220.888,72.614 222.679,77.221 C224.47,81.827 226.261,71.42 228.052,65.769 C229.843,60.117 231.634,59.22 233.425,62.727 C235.216,66.233 237.007,74.143 238.798,71.417 C240.589,68.69 242.38,55.327 244.171,45.675 C245.962,36.024 247.753,30.083 249.544,34.705 C251.335,39.328 253.126,54.512 254.917,55.829 C256.708,57.146 258.499,44.595 260.29,42.985 C262.081,41.375 263.872,50.706 265.663,58.951 C267.454,67.195 269.245,74.354 271.036,78.239 C272.827,82.124 274.618,82.735 276.409,73.465 C278.2,64.194 279.991,45.042 281.782,40.144 C283.573,35.246 285.364,44.603 287.155,44.459 C288.946,44.315 290.737,34.67 291.632,29.848 L292.528,25.026 " stroke="rgb(255, 129, 16)" stroke-width="5" fill="none" stroke-dasharray="0 901.2867431640625"><animate attributeName="stroke-dasharray" dur="2s" to="901.2867431640625 0" fill="freeze"></animate><animateTransform id="ai24f1" attributeName="transform" attributeType="XML" type="translate" from="-5 0" to="5 0" dur="3s" begin="0s;ai24f2.end"></animateTransform><animateTransform id="ai24f2" attributeName="transform" attributeType="XML" type="translate" from="5 0" to="-5 0" dur="3s" begin="ai24f1.end"></animateTransform></path><path stroke-linecap="round" stroke-linejoin="round" d="M30.715,103.484 L31.611,93.166 C32.506,82.849 34.297,62.214 36.088,54.351 C37.879,46.487 39.67,51.396 41.461,53.057 C43.252,54.718 45.043,53.132 46.834,56.672 C48.625,60.212 50.416,68.879 52.207,76.044 C53.998,83.209 55.789,88.874 57.58,85.441 C59.371,82.008 61.162,69.478 62.953,67.866 C64.744,66.254 66.535,75.559 68.326,82.703 C70.117,89.847 71.908,94.829 73.699,92.498 C75.49,90.167 77.281,80.522 79.072,70.157 C80.863,59.792 82.654,48.707 84.445,47.476 C86.236,46.246 88.027,54.869 89.818,65.318 C91.609,75.768 93.4,88.044 95.191,84.216 C96.982,80.388 98.773,60.456 100.564,52.266 C102.355,44.077 104.146,47.63 105.937,56.273 C107.728,64.915 109.519,78.647 111.31,86.931 C113.101,95.215 114.892,98.051 116.683,88.412 C118.474,78.773 120.265,56.66 122.056,48.805 C123.847,40.95 125.638,47.353 127.429,51.965 C129.22,56.577 131.011,59.397 132.802,62.54 C134.593,65.683 136.383,69.148 138.174,68.628 C139.965,68.108 141.756,63.603 143.547,67.121 C145.338,70.639 147.129,82.179 148.92,86.418 C150.711,90.657 152.502,87.595 154.293,77.562 C156.084,67.53 157.875,50.527 159.666,41.613 C161.457,32.699 163.248,31.874 165.039,36.843 C166.83,41.813 168.621,52.579 170.412,58.265 C172.203,63.951 173.994,64.558 175.785,65.908 C177.576,67.257 179.367,69.347 181.158,72.509 C182.949,75.671 184.74,79.904 186.531,72.802 C188.322,65.7 190.113,47.264 191.904,42.367 C193.695,37.47 195.486,46.111 197.277,52.541 C199.068,58.971 200.859,63.19 202.65,64.486 C204.441,65.783 206.232,64.158 208.023,66.942 C209.814,69.727 211.605,76.921 213.396,72.042 C215.187,67.162 216.978,50.209 218.769,51.542 C220.56,52.875 222.351,72.495 224.142,77.101 C225.933,81.708 227.724,71.301 229.515,65.649 C231.306,59.998 233.097,59.101 234.888,62.607 C236.679,66.114 238.47,74.024 240.261,71.297 C242.052,68.571 243.843,55.208 245.634,45.556 C247.425,35.904 249.216,29.964 251.007,34.586 C252.798,39.208 254.588,54.393 256.379,55.71 C258.17,57.027 259.961,44.476 261.752,42.866 C263.543,41.256 265.334,50.587 267.125,58.831 C268.916,67.076 270.707,74.234 272.498,78.119 C274.289,82.004 276.08,82.616 277.871,73.346 C279.662,64.075 281.453,44.922 283.244,40.025 C285.035,35.127 286.826,44.484 288.617,44.34 C290.408,44.196 292.199,34.551 293.095,29.729 L293.99,24.906 L293.99,86.412 L293.095,86.485 C292.199,86.558 290.408,86.704 288.617,86.851 C286.826,86.997 285.035,87.143 283.244,87.289 C281.453,87.435 279.662,87.582 277.871,87.728 C276.08,87.874 274.289,88.02 272.498,88.166 C270.707,88.313 268.916,88.459 267.125,88.605 C265.334,88.751 263.543,88.898 261.752,89.044 C259.961,89.19 258.17,89.336 256.379,89.482 C254.588,89.629 252.798,89.775 251.007,89.921 C249.216,90.067 247.425,90.213 245.634,90.36 C243.843,90.506 242.052,90.652 240.261,90.798 C238.47,90.944 236.679,91.091 234.888,91.237 C233.097,91.383 231.306,91.529 229.515,91.676 C227.724,91.822 225.933,91.968 224.142,92.114 C222.351,92.26 220.56,92.407 218.769,92.553 C216.978,92.699 215.187,92.845 213.396,92.991 C211.605,93.138 209.814,93.284 208.023,93.43 C206.232,93.576 204.441,93.723 202.65,93.869 C200.859,94.015 199.068,94.161 197.277,94.307 C195.486,94.454 193.695,94.6 191.904,94.746 C190.113,94.892 188.322,95.038 186.531,95.185 C184.74,95.331 182.949,95.477 181.158,95.623 C179.367,95.77 177.576,95.916 175.785,96.062 C173.994,96.208 172.203,96.354 170.412,96.501 C168.621,96.647 166.83,96.793 165.039,96.939 C163.248,97.085 161.457,97.232 159.666,97.378 C157.875,97.524 156.084,97.67 154.293,97.817 C152.502,97.963 150.711,98.109 148.92,98.255 C147.129,98.401 145.338,98.548 143.547,98.694 C141.756,98.84 139.965,98.986 138.174,99.132 C136.383,99.279 134.593,99.425 132.802,99.571 C131.011,99.717 129.22,99.863 127.429,100.01 C125.638,100.156 123.847,100.302 122.056,100.448 C120.265,100.595 118.474,100.741 116.683,100.887 C114.892,101.033 113.101,101.179 111.31,101.326 C109.519,101.472 107.728,101.618 105.937,101.764 C104.146,101.91 102.355,102.057 100.564,102.203 C98.773,102.349 96.982,102.495 95.191,102.642 C93.4,102.788 91.609,102.934 89.818,103.08 C88.027,103.226 86.236,103.373 84.445,103.519 C82.654,103.665 80.863,103.811 79.072,103.957 C77.281,104.104 75.49,104.25 73.699,104.396 C71.908,104.542 70.117,104.689 68.326,104.835 C66.535,104.981 64.744,105.127 62.953,105.273 C61.162,105.42 59.371,105.566 57.58,105.712 C55.789,105.858 53.998,106.004 52.207,106.151 C50.416,106.297 48.625,106.443 46.834,106.589 C45.043,106.736 43.252,106.882 41.461,107.028 C39.67,107.174 37.879,107.32 36.088,107.467 C34.297,107.613 32.506,107.759 31.611,107.832 L30.715,107.905 Z" fill="#ea5a0b" fill-opacity="0"><animate attributeName="fill-opacity" begin="1.8s" dur="0.2s" to="1" fill="freeze"></animate><animateTransform id="ai35f1" attributeName="transform" attributeType="XML" type="translate" from="-5 0" to="5 0" dur="3s" begin="0s;ai35f2.end"></animateTransform><animateTransform id="ai35f2" attributeName="transform" attributeType="XML" type="translate" from="5 0" to="-5 0" dur="3s" begin="ai35f1.end"></animateTransform></path></g></g>

        <g style="transform:translate(0px, 396px)" mask="url(#fade-symbol)">
            <text x="200" y="17px" font-family="sans-serif" font-size="0.75em" fill="white" text-anchor="middle">
            October 24, 2022 | Base fee 44GWEI
            </text>
        </g>
        <g style="transform:translate(0px, 416px)" mask="url(#fade-symbol)">
            <text x="200" y="17px" font-family="sans-serif" font-size="0.75em" fill="white" text-anchor="middle">
            October 24, 2022 | Base fee 44GWEI
            </text>
        </g>
        <g style="transform:translate(0px, 436px)" mask="url(#fade-symbol)">
            <text x="200" y="17px" font-family="sans-serif" font-size="0.75em" fill="white" text-anchor="middle">
            October 24, 2022 | Base fee 44GWEI
            </text>
        </g>
      
    </svg>