<svg viewBox="0,0,290,250" width="290" height="250" style="background: rgb(0, 0, 0);" xmlns="http://www.w3.org/2000/svg" xmlns:xlink="http://www.w3.org/1999/xlink">
  <g transform="translate(50,91.66666666666667)">
    <path stroke-linecap="round" stroke-linejoin="round" d="M-36.858,20.176 L-36.291,11.926 C-35.724,3.677 -34.59,-12.821 -33.456,-20.209 C-32.321,-27.597 -31.187,-25.874 -30.053,-26.258 C-28.918,-26.642 -27.784,-29.131 -26.65,-26.398 C-25.516,-23.666 -24.381,-15.711 -23.247,-8.866 C-22.113,-2.021 -20.978,3.715 -19.844,0.957 C-18.71,-1.8 -17.576,-13.05 -16.441,-14.618 C-15.307,-16.187 -14.173,-8.074 -13.038,-1.359 C-11.904,5.355 -10.77,10.67 -9.635,9.252 C-8.501,7.834 -7.367,-0.317 -6.233,-9.164 C-5.098,-18.012 -3.964,-27.555 -2.83,-29.274 C-1.695,-30.994 -0.561,-24.889 0.573,-15.782 C1.707,-6.675 2.842,5.434 3.976,2.393 C5.11,-0.647 6.245,-18.837 7.379,-27.024 C8.513,-35.21 9.647,-33.393 10.782,-25.728 C11.916,-18.064 13.05,-4.553 14.185,4.04 C15.319,12.634 16.453,16.311 17.587,8.525 C18.722,0.738 19.856,-18.511 20.99,-26.344 C22.125,-34.177 23.259,-30.594 24.393,-27.564 C25.528,-24.534 26.662,-22.058 27.796,-19.311 C28.93,-16.565 30.065,-13.548 31.199,-14.085 C32.333,-14.621 33.468,-18.711 34.602,-14.929 C35.736,-11.148 36.87,0.506 38.005,5.057 C39.139,9.609 40.273,7.059 41.408,-1.613 C42.542,-10.284 43.676,-25.076 44.81,-33.801 C45.945,-42.527 47.079,-45.185 48.213,-42.187 C49.348,-39.19 50.482,-30.538 51.616,-25.778 C52.75,-21.019 53.885,-20.153 55.019,-18.29 C56.153,-16.426 57.288,-13.564 58.422,-9.724 C59.556,-5.884 60.691,-1.067 61.825,-7.586 C62.959,-14.106 64.093,-31.963 65.228,-37.373 C66.362,-42.783 67.496,-35.747 68.631,-30.102 C69.765,-24.456 70.899,-20.202 72.033,-18.914 C73.168,-17.626 74.302,-19.305 75.436,-15.961 C76.571,-12.616 77.705,-4.249 78.839,-8.397 C79.973,-12.546 81.108,-29.21 82.242,-27.491 C83.376,-25.772 84.511,-5.67 85.645,-0.757 C86.779,4.156 87.913,-6.12 89.048,-11.713 C90.182,-17.307 91.316,-18.217 92.451,-14.78 C93.585,-11.344 94.719,-3.559 95.854,-5.624 C96.988,-7.689 98.122,-19.604 99.256,-28.58 C100.391,-37.556 101.525,-43.593 102.659,-39.98 C103.794,-36.366 104.928,-23.101 106.062,-22.488 C107.196,-21.874 108.331,-33.912 109.465,-35.79 C110.599,-37.668 111.734,-29.387 112.868,-21.288 C114.002,-13.189 115.136,-5.274 116.271,-0.723 C117.405,3.827 118.539,5.011 119.674,-2.731 C120.808,-10.472 121.942,-27.141 123.076,-31.872 C124.211,-36.603 125.345,-29.397 126.479,-30.485 C127.614,-31.574 128.748,-40.957 129.315,-45.648 L129.882,-50.339 " stroke="rgb(111, 173, 239)" stroke-width="4" fill="none" stroke-dasharray="0 800.6534423828125">
      <animate id="ff3" attributeName="stroke-dasharray" dur="2s" to="800.6534423828125 0" fill="freeze"></animate>
      <animateTransform id="ff1" attributeName="transform" attributeType="XML" type="translate" from="-5 0" to="5 0" dur="3s" begin="0s;ff2.end" />
      <animateTransform id="ff2" attributeName="transform" attributeType="XML" type="translate" begin="ff1.end" from="5 0" to="-5 0" dur="3s" />
    </path>
    <path stroke-linecap="round" stroke-linejoin="round" d="M-35.103,20.032 L-34.536,11.783 C-33.969,3.534 -32.835,-12.964 -31.7,-20.352 C-30.566,-27.74 -29.432,-26.018 -28.298,-26.401 C-27.163,-26.785 -26.029,-29.274 -24.895,-26.542 C-23.76,-23.809 -22.626,-15.855 -21.492,-9.01 C-20.358,-2.164 -19.223,3.571 -18.089,0.814 C-16.955,-1.943 -15.82,-13.193 -14.686,-14.762 C-13.552,-16.33 -12.417,-8.217 -11.283,-1.503 C-10.149,5.212 -9.015,10.527 -7.88,9.109 C-6.746,7.691 -5.612,-0.46 -4.477,-9.308 C-3.343,-18.155 -2.209,-27.698 -1.075,-29.418 C0.06,-31.137 1.194,-25.032 2.328,-15.925 C3.463,-6.818 4.597,5.29 5.731,2.25 C6.865,-0.791 8,-18.981 9.134,-27.167 C10.268,-35.353 11.403,-33.536 12.537,-25.872 C13.671,-18.208 14.805,-4.697 15.94,3.897 C17.074,12.491 18.208,16.168 19.343,8.381 C20.477,0.595 21.611,-18.654 22.746,-26.487 C23.88,-34.32 25.014,-30.737 26.148,-27.707 C27.283,-24.677 28.417,-22.201 29.551,-19.454 C30.686,-16.708 31.82,-13.691 32.954,-14.228 C34.088,-14.765 35.223,-18.855 36.357,-15.073 C37.491,-11.291 38.626,0.362 39.76,4.914 C40.894,9.465 42.028,6.915 43.163,-1.756 C44.297,-10.427 45.431,-25.219 46.566,-33.945 C47.7,-42.67 48.834,-45.328 49.968,-42.331 C51.103,-39.333 52.237,-30.681 53.371,-25.922 C54.506,-21.163 55.64,-20.297 56.774,-18.433 C57.909,-16.569 59.043,-13.707 60.177,-9.867 C61.311,-6.027 62.446,-1.21 63.58,-7.73 C64.714,-14.249 65.849,-32.106 66.983,-37.516 C68.117,-42.927 69.251,-35.89 70.386,-30.245 C71.52,-24.599 72.654,-20.345 73.789,-19.057 C74.923,-17.769 76.057,-19.448 77.191,-16.104 C78.326,-12.759 79.46,-4.392 80.594,-8.541 C81.729,-12.689 82.863,-29.353 83.997,-27.635 C85.131,-25.916 86.266,-5.814 87.4,-0.901 C88.534,4.012 89.669,-6.263 90.803,-11.857 C91.937,-17.45 93.072,-18.361 94.206,-14.924 C95.34,-11.487 96.474,-3.702 97.609,-5.768 C98.743,-7.833 99.877,-19.747 101.012,-28.723 C102.146,-37.699 103.28,-43.737 104.414,-40.123 C105.549,-36.509 106.683,-23.244 107.817,-22.631 C108.952,-22.017 110.086,-34.055 111.22,-35.934 C112.354,-37.812 113.489,-29.53 114.623,-21.431 C115.757,-13.332 116.892,-5.417 118.026,-0.867 C119.16,3.683 120.294,4.868 121.429,-2.874 C122.563,-10.616 123.697,-27.284 124.832,-32.015 C125.966,-36.746 127.1,-29.54 128.235,-30.629 C129.369,-31.717 130.503,-41.1 131.07,-45.791 L131.637,-50.483 L131.637,10.677 L131.07,10.723 C130.503,10.769 129.369,10.862 128.235,10.955 C127.1,11.047 125.966,11.14 124.832,11.232 C123.697,11.325 122.563,11.418 121.429,11.51 C120.294,11.603 119.16,11.695 118.026,11.788 C116.892,11.881 115.757,11.973 114.623,12.066 C113.489,12.158 112.354,12.251 111.22,12.344 C110.086,12.436 108.952,12.529 107.817,12.621 C106.683,12.714 105.549,12.807 104.414,12.899 C103.28,12.992 102.146,13.084 101.012,13.177 C99.877,13.27 98.743,13.362 97.609,13.455 C96.474,13.547 95.34,13.64 94.206,13.733 C93.072,13.825 91.937,13.918 90.803,14.01 C89.669,14.103 88.534,14.196 87.4,14.288 C86.266,14.381 85.131,14.473 83.997,14.566 C82.863,14.659 81.729,14.751 80.594,14.844 C79.46,14.936 78.326,15.029 77.191,15.122 C76.057,15.214 74.923,15.307 73.789,15.399 C72.654,15.492 71.52,15.585 70.386,15.677 C69.251,15.77 68.117,15.862 66.983,15.955 C65.849,16.048 64.714,16.14 63.58,16.233 C62.446,16.325 61.311,16.418 60.177,16.511 C59.043,16.603 57.909,16.696 56.774,16.788 C55.64,16.881 54.506,16.974 53.371,17.066 C52.237,17.159 51.103,17.251 49.968,17.344 C48.834,17.437 47.7,17.529 46.566,17.622 C45.431,17.714 44.297,17.807 43.163,17.9 C42.028,17.992 40.894,18.085 39.76,18.177 C38.626,18.27 37.491,18.363 36.357,18.455 C35.223,18.548 34.088,18.64 32.954,18.733 C31.82,18.826 30.686,18.918 29.551,19.011 C28.417,19.103 27.283,19.196 26.148,19.289 C25.014,19.381 23.88,19.474 22.746,19.566 C21.611,19.659 20.477,19.752 19.343,19.844 C18.208,19.937 17.074,20.029 15.94,20.122 C14.805,20.215 13.671,20.307 12.537,20.4 C11.403,20.492 10.268,20.585 9.134,20.678 C8,20.77 6.865,20.863 5.731,20.955 C4.597,21.048 3.463,21.141 2.328,21.233 C1.194,21.326 0.06,21.418 -1.075,21.511 C-2.209,21.604 -3.343,21.696 -4.477,21.789 C-5.612,21.882 -6.746,21.974 -7.88,22.067 C-9.015,22.159 -10.149,22.252 -11.283,22.345 C-12.417,22.437 -13.552,22.53 -14.686,22.622 C-15.82,22.715 -16.955,22.808 -18.089,22.9 C-19.223,22.993 -20.358,23.085 -21.492,23.178 C-22.626,23.271 -23.76,23.363 -24.895,23.456 C-26.029,23.548 -27.163,23.641 -28.298,23.734 C-29.432,23.826 -30.566,23.919 -31.7,24.011 C-32.835,24.104 -33.969,24.197 -34.536,24.243 L-35.103,24.289 Z" fill="#4e79a7" fill-opacity="0">
      <animate id="fs3" attributeName="fill-opacity" begin="1.8s" dur="0.2s" to="1" fill="freeze"></animate>
      <animateTransform id="fs1" attributeName="transform" attributeType="XML" type="translate" from="-5 0" to="5 0" dur="3s" begin="0s;fs2.end" />
      <animateTransform id="fs2" attributeName="transform" attributeType="XML" type="translate" begin="fs1.end" from="5 0" to="-5 0" dur="3s" />
    </path>
    <path stroke-linecap="round" stroke-linejoin="round" d="M-1.755,61.64 L-1.188,51.349 C-0.621,41.059 0.513,20.477 1.648,12.668 C2.782,4.858 3.916,9.82 5.051,11.535 C6.185,13.249 7.319,11.717 8.453,15.31 C9.588,18.904 10.722,27.624 11.856,34.844 C12.991,42.063 14.125,47.78 15.259,44.401 C16.393,41.022 17.528,28.546 18.662,26.987 C19.796,25.429 20.931,34.787 22.065,41.985 C23.199,49.182 24.334,54.218 25.468,51.941 C26.602,49.663 27.736,40.072 28.871,29.761 C30.005,19.449 31.139,8.418 32.274,7.241 C33.408,6.064 34.542,14.741 35.676,25.244 C36.811,35.747 37.945,48.076 39.079,44.302 C40.214,40.527 41.348,20.649 42.482,12.513 C43.616,4.378 44.751,7.984 45.885,16.68 C47.019,25.377 48.154,39.163 49.288,47.5 C50.422,55.838 51.556,58.727 52.691,49.142 C53.825,39.557 54.959,17.497 56.094,9.695 C57.228,1.894 58.362,8.351 59.497,13.016 C60.631,17.682 61.765,20.555 62.899,23.752 C64.034,26.948 65.168,30.467 66.302,30.001 C67.437,29.535 68.571,25.083 69.705,28.654 C70.839,32.226 71.974,43.82 73.108,48.113 C74.242,52.405 75.377,49.396 76.511,39.418 C77.645,29.439 78.779,12.49 79.914,3.63 C81.048,-5.231 82.182,-6.003 83.317,-0.98 C84.451,4.044 85.585,14.863 86.719,20.603 C87.854,26.343 88.988,27.004 90.122,28.406 C91.257,29.809 92.391,31.953 93.525,35.169 C94.66,38.384 95.794,42.671 96.928,35.622 C98.062,28.574 99.197,10.192 100.331,5.348 C101.465,0.504 102.6,9.2 103.734,15.683 C104.868,22.167 106.002,26.439 107.137,27.789 C108.271,29.139 109.405,27.568 110.54,30.406 C111.674,33.244 112.808,40.492 113.942,35.666 C115.077,30.84 116.211,13.941 117.345,15.327 C118.48,16.714 119.614,36.387 120.748,41.047 C121.882,45.707 123.017,35.354 124.151,29.756 C125.285,24.158 126.42,23.315 127.554,26.875 C128.688,30.435 129.823,38.399 130.957,35.726 C132.091,33.053 133.225,19.744 134.36,10.146 C135.494,0.548 136.628,-5.339 137.763,-0.664 C138.897,4.012 140.031,19.25 141.165,20.621 C142.3,21.991 143.434,9.494 144.568,7.938 C145.703,6.381 146.837,15.766 147.971,24.064 C149.105,32.362 150.24,39.574 151.374,43.513 C152.508,47.451 153.643,48.117 154.777,38.9 C155.911,29.683 157.045,10.584 158.18,5.74 C159.314,0.896 160.448,10.306 161.583,10.216 C162.717,10.126 163.851,0.535 164.418,-4.261 L164.986,-9.057 " stroke="rgb(255, 203, 63)" stroke-width="4" fill="none" stroke-dasharray="0 865.9492797851562">
      <animate attributeName="stroke-dasharray" dur="2s" to="865.9492797851562 0" fill="freeze"></animate>
      <animateTransform id="sf1" attributeName="transform" attributeType="XML" type="translate" from="5 0" to="-5 0" dur="3s" begin="0s;sf2.end" />
      <animateTransform id="sf2" attributeName="transform" attributeType="XML" type="translate" begin="sf1.end" from="-5 0" to="5 0" dur="3s" />
    </path>
    <path stroke-linecap="round" stroke-linejoin="round" d="M0,61.497 L0.567,51.206 C1.134,40.915 2.269,20.334 3.403,12.524 C4.537,4.715 5.671,9.677 6.806,11.391 C7.94,13.106 9.074,11.573 10.209,15.167 C11.343,18.761 12.477,27.481 13.611,34.7 C14.746,41.919 15.88,47.637 17.014,44.258 C18.149,40.879 19.283,28.402 20.417,26.844 C21.552,25.285 22.686,34.644 23.82,41.842 C24.954,49.039 26.089,54.075 27.223,51.797 C28.357,49.52 29.492,39.929 30.626,29.617 C31.76,19.306 32.894,8.275 34.029,7.098 C35.163,5.92 36.297,14.597 37.432,25.1 C38.566,35.603 39.7,47.933 40.834,44.158 C41.969,40.384 43.103,20.506 44.237,12.37 C45.372,4.234 46.506,7.841 47.64,16.537 C48.774,25.233 49.909,39.019 51.043,47.357 C52.177,55.694 53.312,58.584 54.446,48.999 C55.58,39.413 56.715,17.353 57.849,9.552 C58.983,1.75 60.117,8.208 61.252,12.873 C62.386,17.538 63.52,20.412 64.655,23.609 C65.789,26.805 66.923,30.324 68.057,29.858 C69.192,29.391 70.326,24.94 71.46,28.511 C72.595,32.083 73.729,43.677 74.863,47.97 C75.997,52.262 77.132,49.253 78.266,39.274 C79.4,29.295 80.535,12.347 81.669,3.486 C82.803,-5.374 83.937,-6.146 85.072,-1.123 C86.206,3.901 87.34,14.72 88.475,20.46 C89.609,26.2 90.743,26.86 91.878,28.263 C93.012,29.666 94.146,31.81 95.28,35.026 C96.415,38.241 97.549,42.527 98.683,35.479 C99.818,28.431 100.952,10.048 102.086,5.205 C103.22,0.361 104.355,9.057 105.489,15.54 C106.623,22.024 107.758,26.296 108.892,27.646 C110.026,28.996 111.16,27.425 112.295,30.263 C113.429,33.101 114.563,40.349 115.698,35.523 C116.832,30.697 117.966,13.797 119.1,15.184 C120.235,16.571 121.369,36.244 122.503,40.904 C123.638,45.564 124.772,35.211 125.906,29.613 C127.041,24.015 128.175,23.172 129.309,26.732 C130.443,30.292 131.578,38.256 132.712,35.583 C133.846,32.91 134.981,19.6 136.115,10.002 C137.249,0.404 138.383,-5.483 139.518,-0.807 C140.652,3.869 141.786,19.107 142.921,20.478 C144.055,21.848 145.189,9.351 146.323,7.794 C147.458,6.238 148.592,15.623 149.726,23.921 C150.861,32.219 151.995,39.431 153.129,43.37 C154.263,47.308 155.398,47.974 156.532,38.757 C157.666,29.54 158.801,10.441 159.935,5.597 C161.069,0.752 162.204,10.163 163.338,10.073 C164.472,9.983 165.606,0.391 166.174,-4.404 L166.741,-9.2 L166.741,52.306 L166.174,52.352 C165.606,52.398 164.472,52.491 163.338,52.583 C162.204,52.676 161.069,52.769 159.935,52.861 C158.801,52.954 157.666,53.046 156.532,53.139 C155.398,53.232 154.263,53.324 153.129,53.417 C151.995,53.509 150.861,53.602 149.726,53.695 C148.592,53.787 147.458,53.88 146.323,53.972 C145.189,54.065 144.055,54.158 142.921,54.25 C141.786,54.343 140.652,54.435 139.518,54.528 C138.383,54.621 137.249,54.713 136.115,54.806 C134.981,54.898 133.846,54.991 132.712,55.084 C131.578,55.176 130.443,55.269 129.309,55.361 C128.175,55.454 127.041,55.547 125.906,55.639 C124.772,55.732 123.638,55.824 122.503,55.917 C121.369,56.01 120.235,56.102 119.1,56.195 C117.966,56.287 116.832,56.38 115.698,56.473 C114.563,56.565 113.429,56.658 112.295,56.751 C111.16,56.843 110.026,56.936 108.892,57.028 C107.758,57.121 106.623,57.214 105.489,57.306 C104.355,57.399 103.22,57.491 102.086,57.584 C100.952,57.677 99.818,57.769 98.683,57.862 C97.549,57.954 96.415,58.047 95.28,58.14 C94.146,58.232 93.012,58.325 91.878,58.417 C90.743,58.51 89.609,58.603 88.475,58.695 C87.34,58.788 86.206,58.88 85.072,58.973 C83.937,59.066 82.803,59.158 81.669,59.251 C80.535,59.343 79.4,59.436 78.266,59.529 C77.132,59.621 75.997,59.714 74.863,59.806 C73.729,59.899 72.595,59.992 71.46,60.084 C70.326,60.177 69.192,60.269 68.057,60.362 C66.923,60.455 65.789,60.547 64.655,60.64 C63.52,60.732 62.386,60.825 61.252,60.918 C60.117,61.01 58.983,61.103 57.849,61.195 C56.715,61.288 55.58,61.381 54.446,61.473 C53.312,61.566 52.177,61.658 51.043,61.751 C49.909,61.844 48.774,61.936 47.64,62.029 C46.506,62.121 45.372,62.214 44.237,62.307 C43.103,62.399 41.969,62.492 40.834,62.584 C39.7,62.677 38.566,62.77 37.432,62.862 C36.297,62.955 35.163,63.047 34.029,63.14 C32.894,63.233 31.76,63.325 30.626,63.418 C29.492,63.51 28.357,63.603 27.223,63.696 C26.089,63.788 24.954,63.881 23.82,63.973 C22.686,64.066 21.552,64.159 20.417,64.251 C19.283,64.344 18.149,64.436 17.014,64.529 C15.88,64.622 14.746,64.714 13.611,64.807 C12.477,64.899 11.343,64.992 10.209,65.085 C9.074,65.177 7.94,65.27 6.806,65.362 C5.671,65.455 4.537,65.548 3.403,65.64 C2.269,65.733 1.134,65.825 0.567,65.872 L0,65.918 Z" fill="#f28e2c" fill-opacity="0">
      <animate attributeName="fill-opacity" begin="1.8s" dur="0.2s" to="1" fill="freeze"></animate>
      <animateTransform id="ss1" attributeName="transform" attributeType="XML" type="translate" from="5 0" to="-5 0" dur="3s" begin="0s;ss2.end" />
      <animateTransform id="ss2" attributeName="transform" attributeType="XML" type="translate" begin="ss1.end" from="-5 0" to="5 0" dur="3s" />
    </path>
    <path stroke-linecap="round" stroke-linejoin="round" d="M33.348,55.522 L33.915,56.408 C34.482,57.294 35.617,59.066 36.751,58.936 C37.885,58.807 39.02,56.775 40.154,55.061 C41.288,53.347 42.422,51.95 43.557,50.372 C44.691,48.793 45.825,47.034 46.96,46.256 C48.094,45.479 49.228,45.684 50.362,46.505 C51.497,47.327 52.631,48.766 53.765,48.896 C54.9,49.027 56.034,47.849 57.168,47.632 C58.303,47.415 59.437,48.159 60.571,49.438 C61.705,50.717 62.84,52.531 63.974,53.348 C65.108,54.166 66.243,53.986 67.377,52.786 C68.511,51.586 69.645,49.366 70.78,47.953 C71.914,46.54 73.048,45.934 74.183,46.687 C75.317,47.439 76.451,49.55 77.585,49.557 C78.72,49.564 79.854,47.467 80.988,45.704 C82.123,43.942 83.257,42.514 84.391,42.647 C85.525,42.779 86.66,44.472 87.794,46.461 C88.928,48.449 90.063,50.734 91.197,50.791 C92.331,50.848 93.466,48.677 94.6,47.032 C95.734,45.388 96.868,44.271 98.003,43.495 C99.137,42.72 100.271,42.286 101.406,42.211 C102.54,42.137 103.674,42.421 104.808,42.248 C105.943,42.074 107.077,41.443 108.211,42.124 C109.346,42.804 110.48,44.797 111.614,46.391 C112.748,47.986 113.883,49.182 115.017,48.696 C116.151,48.211 117.286,46.043 118.42,43.728 C119.554,41.413 120.688,38.951 121.823,37.59 C122.957,36.229 124.091,35.97 125.226,35.826 C126.36,35.682 127.494,35.653 128.629,35.943 C129.763,36.232 130.897,36.84 132.031,37.937 C133.166,39.034 134.3,40.62 135.434,40.176 C136.569,39.732 137.703,37.258 138.837,35.704 C139.971,34.15 141.106,33.516 142.24,33.387 C143.374,33.258 144.509,33.633 145.643,33.806 C146.777,33.978 147.911,33.947 149.046,34.832 C150.18,35.717 151.314,37.519 152.449,37.404 C153.583,37.29 154.717,35.26 155.851,35.541 C156.986,35.822 158.12,38.415 159.254,39.735 C160.389,41.056 161.523,41.104 162.657,41.054 C163.792,41.004 164.926,40.855 166.06,41.564 C167.194,42.274 168.329,43.842 169.463,44.023 C170.597,44.204 171.732,42.999 172.866,41.215 C174,39.431 175.134,37.068 176.269,36.3 C177.403,35.533 178.537,36.359 179.672,35.833 C180.806,35.307 181.94,33.428 183.074,32.571 C184.209,31.713 185.343,31.877 186.477,32.892 C187.612,33.908 188.746,35.775 189.88,37.658 C191.015,39.541 192.149,41.44 193.283,41.416 C194.417,41.393 195.552,39.447 196.686,38.408 C197.82,37.368 198.955,37.234 199.522,37.167 L200.089,37.101 " stroke="rgb(255, 124, 127)" stroke-width="4" fill="none" stroke-dasharray="0 235.4358367919922">
      <animate attributeName="stroke-dasharray" dur="2s" to="235.4358367919922 0" fill="freeze"></animate>
      <animateTransform id="t1" attributeName="transform" attributeType="XML" type="translate" from="-5 0" to="5 0" dur="3s" begin="0s;t2.end" />
      <animateTransform id="t2" attributeName="transform" attributeType="XML" type="translate" begin="t1.end" from="5 0" to="-5 0" dur="3s" />
    </path>
    <path stroke-linecap="round" stroke-linejoin="round" d="M35.103,55.379 L35.67,56.265 C36.238,57.151 37.372,58.923 38.506,58.793 C39.64,58.663 40.775,56.632 41.909,54.917 C43.043,53.203 44.178,51.806 45.312,50.228 C46.446,48.65 47.58,46.89 48.715,46.113 C49.849,45.335 50.983,45.54 52.118,46.362 C53.252,47.184 54.386,48.622 55.521,48.753 C56.655,48.883 57.789,47.706 58.923,47.489 C60.058,47.272 61.192,48.016 62.326,49.294 C63.461,50.573 64.595,52.388 65.729,53.205 C66.863,54.022 67.998,53.842 69.132,52.642 C70.266,51.443 71.401,49.222 72.535,47.81 C73.669,46.397 74.803,45.791 75.938,46.544 C77.072,47.296 78.206,49.407 79.341,49.414 C80.475,49.42 81.609,47.323 82.743,45.561 C83.878,43.799 85.012,42.371 86.146,42.504 C87.281,42.636 88.415,44.329 89.549,46.317 C90.684,48.306 91.818,50.591 92.952,50.648 C94.086,50.705 95.221,48.533 96.355,46.889 C97.489,45.245 98.624,44.127 99.758,43.352 C100.892,42.576 102.026,42.143 103.161,42.068 C104.295,41.993 105.429,42.278 106.564,42.104 C107.698,41.931 108.832,41.3 109.966,41.981 C111.101,42.661 112.235,44.654 113.369,46.248 C114.504,47.843 115.638,49.039 116.772,48.553 C117.907,48.067 119.041,45.9 120.175,43.585 C121.309,41.27 122.444,38.807 123.578,37.447 C124.712,36.086 125.847,35.826 126.981,35.682 C128.115,35.539 129.249,35.51 130.384,35.8 C131.518,36.089 132.652,36.697 133.787,37.794 C134.921,38.89 136.055,40.476 137.189,40.033 C138.324,39.589 139.458,37.115 140.592,35.561 C141.727,34.007 142.861,33.373 143.995,33.244 C145.129,33.115 146.264,33.49 147.398,33.662 C148.532,33.835 149.667,33.803 150.801,34.689 C151.935,35.574 153.07,37.375 154.204,37.261 C155.338,37.147 156.472,35.116 157.607,35.398 C158.741,35.679 159.875,38.272 161.01,39.592 C162.144,40.913 163.278,40.961 164.412,40.911 C165.547,40.861 166.681,40.712 167.815,41.421 C168.95,42.131 170.084,43.699 171.218,43.88 C172.352,44.061 173.487,42.855 174.621,41.071 C175.755,39.287 176.89,36.925 178.024,36.157 C179.158,35.389 180.292,36.216 181.427,35.69 C182.561,35.164 183.695,33.285 184.83,32.427 C185.964,31.57 187.098,31.734 188.233,32.749 C189.367,33.765 190.501,35.632 191.635,37.514 C192.77,39.397 193.904,41.296 195.038,41.273 C196.173,41.25 197.307,39.304 198.441,38.264 C199.575,37.225 200.71,37.091 201.277,37.024 L201.844,36.957 L201.844,93.935 L201.277,93.981 C200.71,94.027 199.575,94.12 198.441,94.212 C197.307,94.305 196.173,94.398 195.038,94.49 C193.904,94.583 192.77,94.675 191.635,94.768 C190.501,94.861 189.367,94.953 188.233,95.046 C187.098,95.138 185.964,95.231 184.83,95.324 C183.695,95.416 182.561,95.509 181.427,95.601 C180.292,95.694 179.158,95.787 178.024,95.879 C176.89,95.972 175.755,96.064 174.621,96.157 C173.487,96.25 172.352,96.342 171.218,96.435 C170.084,96.527 168.95,96.62 167.815,96.713 C166.681,96.805 165.547,96.898 164.412,96.99 C163.278,97.083 162.144,97.176 161.01,97.268 C159.875,97.361 158.741,97.453 157.607,97.546 C156.472,97.639 155.338,97.731 154.204,97.824 C153.07,97.916 151.935,98.009 150.801,98.102 C149.667,98.194 148.532,98.287 147.398,98.379 C146.264,98.472 145.129,98.565 143.995,98.657 C142.861,98.75 141.727,98.842 140.592,98.935 C139.458,99.028 138.324,99.12 137.189,99.213 C136.055,99.305 134.921,99.398 133.787,99.491 C132.652,99.583 131.518,99.676 130.384,99.768 C129.249,99.861 128.115,99.954 126.981,100.046 C125.847,100.139 124.712,100.231 123.578,100.324 C122.444,100.417 121.309,100.509 120.175,100.602 C119.041,100.694 117.907,100.787 116.772,100.88 C115.638,100.972 114.504,101.065 113.369,101.157 C112.235,101.25 111.101,101.343 109.966,101.435 C108.832,101.528 107.698,101.62 106.564,101.713 C105.429,101.806 104.295,101.898 103.161,101.991 C102.026,102.083 100.892,102.176 99.758,102.269 C98.624,102.361 97.489,102.454 96.355,102.547 C95.221,102.639 94.086,102.732 92.952,102.824 C91.818,102.917 90.684,103.01 89.549,103.102 C88.415,103.195 87.281,103.287 86.146,103.38 C85.012,103.473 83.878,103.565 82.743,103.658 C81.609,103.75 80.475,103.843 79.341,103.936 C78.206,104.028 77.072,104.121 75.938,104.213 C74.803,104.306 73.669,104.399 72.535,104.491 C71.401,104.584 70.266,104.676 69.132,104.769 C67.998,104.862 66.863,104.954 65.729,105.047 C64.595,105.139 63.461,105.232 62.326,105.325 C61.192,105.417 60.058,105.51 58.923,105.602 C57.789,105.695 56.655,105.788 55.521,105.88 C54.386,105.973 53.252,106.065 52.118,106.158 C50.983,106.251 49.849,106.343 48.715,106.436 C47.58,106.528 46.446,106.621 45.312,106.714 C44.178,106.806 43.043,106.899 41.909,106.991 C40.775,107.084 39.64,107.177 38.506,107.269 C37.372,107.362 36.238,107.454 35.67,107.501 L35.103,107.547 Z" fill="#e15759" fill-opacity="0">
      <animate attributeName="fill-opacity" begin="1.8s" dur="0.2s" to="1" fill="freeze"></animate>
      <animateTransform id="t1" attributeName="transform" attributeType="XML" type="translate" from="-5 0" to="5 0" dur="3s" begin="0s;t2.end" />
      <animateTransform id="t2" attributeName="transform" attributeType="XML" type="translate" begin="t1.end" from="5 0" to="-5 0" dur="3s" />
    </path>
  </g>
</svg>